<?xml version="1.0" encoding="UTF-8" standalone="no"?>
<!-- Created with Inkscape (http://www.inkscape.org/) -->

<svg
   xmlns:dc="http://purl.org/dc/elements/1.1/"
   xmlns:cc="http://creativecommons.org/ns#"
   xmlns:rdf="http://www.w3.org/1999/02/22-rdf-syntax-ns#"
   xmlns:svg="http://www.w3.org/2000/svg"
   xmlns="http://www.w3.org/2000/svg"
   xmlns:xlink="http://www.w3.org/1999/xlink"
   xmlns:sodipodi="http://sodipodi.sourceforge.net/DTD/sodipodi-0.dtd"
   xmlns:inkscape="http://www.inkscape.org/namespaces/inkscape"
   width="31mm"
   height="30mm"
   viewBox="0 0 109.84251 106.29921"
   id="svg2"
   version="1.1"
   inkscape:version="0.91 r13725"
   sodipodi:docname="Kuh-coloured.svg">
  <title
     id="title4136">cow - coloured</title>
  <defs
     id="defs4">
    <linearGradient
       id="linearGradient7550"
       inkscape:collect="always">
      <stop
         id="stop7552"
         offset="0"
         style="stop-color:#a05a2c;stop-opacity:0" />
      <stop
         style="stop-color:#a05a2c;stop-opacity:0.0866426"
         offset="0.43250182"
         id="stop7554" />
      <stop
         style="stop-color:#a05a2c;stop-opacity:0.64259928"
         offset="0.7110793"
         id="stop7556" />
      <stop
         id="stop7558"
         offset="1"
         style="stop-color:#a05a2c;stop-opacity:0.66274512" />
    </linearGradient>
    <linearGradient
       inkscape:collect="always"
       id="linearGradient7208">
      <stop
         style="stop-color:#a05a2c;stop-opacity:0"
         offset="0"
         id="stop7210" />
      <stop
         id="stop7218"
         offset="0.43250182"
         style="stop-color:#a05a2c;stop-opacity:0.0866426" />
      <stop
         id="stop7216"
         offset="0.7110793"
         style="stop-color:#a05a2c;stop-opacity:1;" />
      <stop
         style="stop-color:#a05a2c;stop-opacity:1"
         offset="1"
         id="stop7212" />
    </linearGradient>
    <pattern
       inkscape:collect="always"
       xlink:href="#Polkadots-large"
       id="pattern6573"
       patternTransform="matrix(0.88716134,0,0,0.94903317,-0.45053247,-2.9166898)" />
    <pattern
       inkscape:collect="always"
       xlink:href="#Polkadots-large"
       id="pattern6477"
       patternTransform="matrix(0.88878562,0,0,0.91744678,-0.45053247,-2.9166898)" />
    <pattern
       inkscape:collect="always"
       xlink:href="#Polkadots-large"
       id="pattern6383"
       patternTransform="matrix(0.84825261,0,0,0.80431867,-0.45053247,-2.9166898)" />
    <pattern
       inkscape:collect="always"
       xlink:href="#Polkadots-large"
       id="pattern6289"
       patternTransform="matrix(0.88878562,0,0,0.8918186,0.44788451,-2.3302718)" />
    <pattern
       inkscape:collect="always"
       xlink:href="#Polkadots-large"
       id="pattern6092"
       patternTransform="matrix(0.92414098,0,0,0.83209148,-0.45053247,-2.9166898)" />
    <pattern
       inkscape:collect="always"
       xlink:href="#Polkadots-large"
       id="pattern5998"
       patternTransform="matrix(0.78993416,0,0,0.77225649,-0.45053247,-2.9166898)" />
    <pattern
       inkscape:collect="always"
       xlink:href="#Polkadots-large"
       id="pattern5904"
       patternTransform="matrix(0.79033595,0,0,0.81046311,-0.45053247,-2.9166898)" />
    <pattern
       inkscape:isstock="true"
       inkscape:stockid="Polka dots, large"
       id="Polkadots-large"
       patternTransform="translate(0,0) scale(10,10)"
       height="10"
       width="10"
       patternUnits="userSpaceOnUse"
       inkscape:collect="always">
      <circle
         id="circle5543"
         r="0.45"
         cy="0.810"
         cx="2.567"
         style="fill:black;stroke:none" />
      <circle
         id="circle5545"
         r="0.45"
         cy="2.33"
         cx="3.048"
         style="fill:black;stroke:none" />
      <circle
         id="circle5547"
         r="0.45"
         cy="2.415"
         cx="4.418"
         style="fill:black;stroke:none" />
      <circle
         id="circle5549"
         r="0.45"
         cy="3.029"
         cx="1.844"
         style="fill:black;stroke:none" />
      <circle
         id="circle5551"
         r="0.45"
         cy="1.363"
         cx="6.08"
         style="fill:black;stroke:none" />
      <circle
         id="circle5553"
         r="0.45"
         cy="4.413"
         cx="5.819"
         style="fill:black;stroke:none" />
      <circle
         id="circle5555"
         r="0.45"
         cy="4.048"
         cx="4.305"
         style="fill:black;stroke:none" />
      <circle
         id="circle5557"
         r="0.45"
         cy="3.045"
         cx="5.541"
         style="fill:black;stroke:none" />
      <circle
         id="circle5559"
         r="0.45"
         cy="5.527"
         cx="4.785"
         style="fill:black;stroke:none" />
      <circle
         id="circle5561"
         r="0.45"
         cy="5.184"
         cx="2.667"
         style="fill:black;stroke:none" />
      <circle
         id="circle5563"
         r="0.45"
         cy="1.448"
         cx="7.965"
         style="fill:black;stroke:none" />
      <circle
         id="circle5565"
         r="0.45"
         cy="5.049"
         cx="7.047"
         style="fill:black;stroke:none" />
      <circle
         id="circle5567"
         r="0.45"
         cy="0.895"
         cx="4.340"
         style="fill:black;stroke:none" />
      <circle
         id="circle5569"
         r="0.45"
         cy="0.340"
         cx="7.125"
         style="fill:black;stroke:none" />
      <circle
         id="circle5571"
         r="0.45"
         cy="1.049"
         cx="9.553"
         style="fill:black;stroke:none" />
      <circle
         id="circle5573"
         r="0.45"
         cy="2.689"
         cx="7.006"
         style="fill:black;stroke:none" />
      <circle
         id="circle5575"
         r="0.45"
         cy="2.689"
         cx="8.909"
         style="fill:black;stroke:none" />
      <circle
         id="circle5577"
         r="0.45"
         cy="4.407"
         cx="9.315"
         style="fill:black;stroke:none" />
      <circle
         id="circle5579"
         r="0.45"
         cy="3.870"
         cx="7.820"
         style="fill:black;stroke:none" />
      <circle
         id="circle5581"
         r="0.45"
         cy="5.948"
         cx="8.270"
         style="fill:black;stroke:none" />
      <circle
         id="circle5583"
         r="0.45"
         cy="7.428"
         cx="7.973"
         style="fill:black;stroke:none" />
      <circle
         id="circle5585"
         r="0.45"
         cy="8.072"
         cx="9.342"
         style="fill:black;stroke:none" />
      <circle
         id="circle5587"
         r="0.45"
         cy="9.315"
         cx="8.206"
         style="fill:black;stroke:none" />
      <circle
         id="circle5589"
         r="0.45"
         cy="9.475"
         cx="9.682"
         style="fill:black;stroke:none" />
      <circle
         id="circle5591"
         r="0.45"
         cy="6.186"
         cx="9.688"
         style="fill:black;stroke:none" />
      <circle
         id="circle5593"
         r="0.45"
         cy="6.296"
         cx="3.379"
         style="fill:black;stroke:none" />
      <circle
         id="circle5595"
         r="0.45"
         cy="8.204"
         cx="2.871"
         style="fill:black;stroke:none" />
      <circle
         id="circle5597"
         r="0.45"
         cy="8.719"
         cx="4.59"
         style="fill:black;stroke:none" />
      <circle
         id="circle5599"
         r="0.45"
         cy="9.671"
         cx="3.181"
         style="fill:black;stroke:none" />
      <circle
         id="circle5601"
         r="0.45"
         cy="7.315"
         cx="5.734"
         style="fill:black;stroke:none" />
      <circle
         id="circle5603"
         r="0.45"
         cy="6.513"
         cx="6.707"
         style="fill:black;stroke:none" />
      <circle
         id="circle5605"
         r="0.45"
         cy="9.670"
         cx="5.730"
         style="fill:black;stroke:none" />
      <circle
         id="circle5607"
         r="0.45"
         cy="8.373"
         cx="6.535"
         style="fill:black;stroke:none" />
      <circle
         id="circle5609"
         r="0.45"
         cy="7.154"
         cx="4.37"
         style="fill:black;stroke:none" />
      <circle
         id="circle5611"
         r="0.45"
         cy="7.25"
         cx="0.622"
         style="fill:black;stroke:none" />
      <circle
         id="circle5613"
         r="0.45"
         cy="5.679"
         cx="0.831"
         style="fill:black;stroke:none" />
      <circle
         id="circle5615"
         r="0.45"
         cy="8.519"
         cx="1.257"
         style="fill:black;stroke:none" />
      <circle
         id="circle5617"
         r="0.45"
         cy="6.877"
         cx="1.989"
         style="fill:black;stroke:none" />
      <circle
         id="circle5619"
         r="0.45"
         cy="3.181"
         cx="0.374"
         style="fill:black;stroke:none" />
      <circle
         id="circle5621"
         r="0.45"
         cy="1.664"
         cx="1.166"
         style="fill:black;stroke:none" />
      <circle
         id="circle5623"
         r="0.45"
         cy="0.093"
         cx="1.151"
         style="fill:black;stroke:none" />
      <circle
         id="circle5625"
         r="0.45"
         cy="10.093"
         cx="1.151"
         style="fill:black;stroke:none" />
      <circle
         id="circle5627"
         r="0.45"
         cy="4.451"
         cx="1.302"
         style="fill:black;stroke:none" />
      <circle
         id="circle5629"
         r="0.45"
         cy="3.763"
         cx="3.047"
         style="fill:black;stroke:none" />
    </pattern>
    <radialGradient
       inkscape:collect="always"
       xlink:href="#linearGradient7208"
       id="radialGradient7214"
       cx="63.148129"
       cy="40.454536"
       fx="63.148129"
       fy="40.454536"
       r="15.733125"
       gradientTransform="matrix(1.8838618,-0.30279453,0.13240563,0.82377287,-62.129637,36.675009)"
       gradientUnits="userSpaceOnUse" />
    <radialGradient
       inkscape:collect="always"
       xlink:href="#linearGradient7208"
       id="radialGradient7387"
       cx="2.8171055"
       cy="70.061165"
       fx="2.8171055"
       fy="70.061165"
       r="12.812365"
       gradientTransform="matrix(0.93317832,-0.2926407,0.70730201,2.2554583,-25.069713,-91.826856)"
       gradientUnits="userSpaceOnUse" />
    <radialGradient
       inkscape:collect="always"
       xlink:href="#linearGradient7550"
       id="radialGradient7548"
       cx="106.43135"
       cy="61.304966"
       fx="106.43135"
       fy="61.304966"
       r="6.2810555"
       gradientTransform="matrix(1.7905318,-0.13953518,0.0394185,0.50582276,-95.470392,38.382681)"
       gradientUnits="userSpaceOnUse" />
  </defs>
  <sodipodi:namedview
     id="base"
     pagecolor="#ffffff"
     bordercolor="#666666"
     borderopacity="1.0"
     inkscape:pageopacity="0.0"
     inkscape:pageshadow="2"
     inkscape:zoom="1"
     inkscape:cx="74.635484"
     inkscape:cy="45.556275"
     inkscape:document-units="mm"
     inkscape:current-layer="layer2"
     showgrid="false"
     borderlayer="true"
     inkscape:window-width="1626"
     inkscape:window-height="1067"
     inkscape:window-x="275"
     inkscape:window-y="121"
     inkscape:window-maximized="0"
     inkscape:snap-global="false"
     fit-margin-top="1"
     fit-margin-right="1"
     fit-margin-bottom="1"
     fit-margin-left="1" />
  <metadata
     id="metadata7">
    <rdf:RDF>
      <cc:Work
         rdf:about="">
        <dc:format>image/svg+xml</dc:format>
        <dc:type
           rdf:resource="http://purl.org/dc/dcmitype/StillImage" />
        <dc:title>cow - coloured</dc:title>
        <cc:license
           rdf:resource="http://creativecommons.org/publicdomain/zero/1.0/" />
        <dc:date>2016-04-10</dc:date>
        <dc:creator>
          <cc:Agent>
            <dc:title>Frank Tremmel</dc:title>
          </cc:Agent>
        </dc:creator>
        <dc:subject>
          <rdf:Bag>
            <rdf:li>cow</rdf:li>
            <rdf:li>farm</rdf:li>
            <rdf:li>animal</rdf:li>
            <rdf:li>line art</rdf:li>
            <rdf:li>outline</rdf:li>
            <rdf:li>school</rdf:li>
            <rdf:li>education</rdf:li>
            <rdf:li>teaching</rdf:li>
            <rdf:li>kuh</rdf:li>
            <rdf:li>tier</rdf:li>
            <rdf:li>bauernhof</rdf:li>
            <rdf:li>schule</rdf:li>
            <rdf:li>unterricht</rdf:li>
            <rdf:li>erziehung</rdf:li>
            <rdf:li></rdf:li>
          </rdf:Bag>
        </dc:subject>
        <dc:description>coloured line art cow</dc:description>
      </cc:Work>
      <cc:License
         rdf:about="http://creativecommons.org/publicdomain/zero/1.0/">
        <cc:permits
           rdf:resource="http://creativecommons.org/ns#Reproduction" />
        <cc:permits
           rdf:resource="http://creativecommons.org/ns#Distribution" />
        <cc:permits
           rdf:resource="http://creativecommons.org/ns#DerivativeWorks" />
      </cc:License>
    </rdf:RDF>
  </metadata>
  <g
     inkscape:groupmode="layer"
     id="layer2"
     inkscape:label="Ebene 2"
     style="display:inline"
     transform="translate(1.4358765,5.0447597)">
    <path
       style="display:inline;fill:#c8beb7;fill-rule:evenodd;stroke:#ff6600;stroke-width:0.29055119;stroke-linecap:butt;stroke-linejoin:miter;stroke-miterlimit:4;stroke-dasharray:none;stroke-opacity:1"
       d="m 48.936868,87.372944 c -1.544724,0.729167 -2.270257,1.458333 -3.09375,2.1875 -0.664668,0.864583 -1.325083,1.729167 -0.28125,2.59375 l 2.78125,-0.25 c 0.580133,0.990282 1.145255,2.200886 3.03125,2.374996 0.875,0.11611 4.9375,-0.3104 4.9375,-1.156246 0,-0.125 0.375,-2.40625 0.375,-2.40625 -2.031999,-0.814449 -3.654265,-1.987414 -6.28125,-2.28125 z"
       id="path4346-9"
       inkscape:connector-curvature="0"
       sodipodi:nodetypes="cccccsccc" />
    <path
       style="color:#000000;font-style:normal;font-variant:normal;font-weight:normal;font-stretch:normal;font-size:medium;line-height:normal;font-family:sans-serif;text-indent:0;text-align:start;text-decoration:none;text-decoration-line:none;text-decoration-style:solid;text-decoration-color:#000000;letter-spacing:normal;word-spacing:normal;text-transform:none;direction:ltr;block-progression:tb;writing-mode:lr-tb;baseline-shift:baseline;text-anchor:start;white-space:normal;clip-rule:nonzero;display:inline;overflow:visible;visibility:visible;opacity:1;isolation:auto;mix-blend-mode:normal;color-interpolation:sRGB;color-interpolation-filters:linearRGB;solid-color:#000000;solid-opacity:1;fill:#916f6f;fill-opacity:1;fill-rule:evenodd;stroke:none;stroke-width:1.77165353;stroke-linecap:butt;stroke-linejoin:miter;stroke-miterlimit:4;stroke-dasharray:none;stroke-dashoffset:0;stroke-opacity:1;color-rendering:auto;image-rendering:auto;shape-rendering:auto;text-rendering:auto;enable-background:accumulate"
       d="m 48.406713,86.937351 c -0.446514,0.375725 -0.886294,0.554609 -1.539806,1.01051 -0.630621,0.439931 -1.213213,0.965377 -1.671875,1.664062 -0.600616,0.914925 -1.123915,2.185515 -0.05918,3.221857 0.651649,0.63427 2.195021,0.51302 2.955664,-0.174982 -0.568887,1.537672 2.680349,2.153402 4.232461,2.135272 1.787049,-0.17284 3.241281,-0.41019 4.580157,-1.35553 l 0.473984,-2.316246 -1.03803,-0.330138 -0.660682,0.989689 c -0.692541,0.422295 -1.98056,0.86764 -3.279296,0.882813 -1.408907,0.01646 -2.680027,-0.387228 -3.408203,-1.451172 -0.07792,-1.048856 0.981397,-1.642818 1.491677,-2.456394 l -0.250181,-0.275199 c -0.817256,0.819728 -1.673895,1.729691 -2.421184,2.467921 -0.736523,0.727595 -1.352061,0.503936 -1.432226,0.425058 -0.08017,-0.07888 -0.366991,-0.794949 -0.153552,-1.101345 0.349685,-0.50198 1.006132,-1.309855 1.442631,-1.637209 0.571789,-0.428814 1.252923,-0.367884 1.861993,-0.880393 z"
       id="path4281-7"
       inkscape:connector-curvature="0"
       sodipodi:nodetypes="csssccccccscccscsscc" />
    <path
       style="fill:#c8beb7;fill-rule:evenodd;stroke:#ff6600;stroke-width:0.29055119;stroke-linecap:butt;stroke-linejoin:miter;stroke-miterlimit:4;stroke-dasharray:none;stroke-opacity:1"
       d="m 23.518218,83.82002 c -1.544724,0.729167 -2.270257,1.458333 -3.09375,2.1875 -0.664668,0.864583 -1.325083,1.729167 -0.28125,2.59375 l 2.78125,-0.25 c 0.580133,0.990282 1.207755,1.950882 3.09375,2.125 0,0.522356 4.875,-0.06038 4.875,-0.90625 0,-0.125 0.375,-2.40625 0.375,-2.40625 -2.031999,-0.814449 -3.654265,-1.987414 -6.28125,-2.28125 z"
       id="path4346"
       inkscape:connector-curvature="0"
       sodipodi:nodetypes="cccccsccc" />
    <path
       style="color:#000000;font-style:normal;font-variant:normal;font-weight:normal;font-stretch:normal;font-size:medium;line-height:normal;font-family:sans-serif;text-indent:0;text-align:start;text-decoration:none;text-decoration-line:none;text-decoration-style:solid;text-decoration-color:#000000;letter-spacing:normal;word-spacing:normal;text-transform:none;direction:ltr;block-progression:tb;writing-mode:lr-tb;baseline-shift:baseline;text-anchor:start;white-space:normal;clip-rule:nonzero;display:inline;overflow:visible;visibility:visible;opacity:1;isolation:auto;mix-blend-mode:normal;color-interpolation:sRGB;color-interpolation-filters:linearRGB;solid-color:#000000;solid-opacity:1;fill:#916f6f;fill-opacity:1;fill-rule:evenodd;stroke:none;stroke-width:1.77165353;stroke-linecap:butt;stroke-linejoin:miter;stroke-miterlimit:4;stroke-dasharray:none;stroke-dashoffset:0;stroke-opacity:1;color-rendering:auto;image-rendering:auto;shape-rendering:auto;text-rendering:auto;enable-background:accumulate"
       d="m 22.895915,83.475144 c -0.446514,0.375725 -0.886294,0.554609 -1.539806,1.01051 -0.630621,0.439931 -1.213213,0.965377 -1.671875,1.664062 -0.600616,0.914925 -1.123915,2.185515 -0.05918,3.221854 0.651649,0.634268 2.195021,0.513021 2.955664,-0.174979 -0.568887,1.537674 2.680349,2.153404 4.232461,2.135272 1.787049,-0.172842 3.241282,-0.41019 4.580158,-1.355528 l 0.473984,-2.316248 -1.03803,-0.330138 -0.660682,0.989689 c -0.692541,0.422295 -1.980561,0.86764 -3.279297,0.882813 -1.408907,0.01646 -2.680027,-0.387228 -3.408203,-1.451172 -0.07792,-1.048856 0.981397,-1.642818 1.491677,-2.456394 l -0.250181,-0.275199 c -0.817256,0.819728 -1.673895,1.729691 -2.421184,2.467921 -0.736523,0.727595 -1.352061,0.503936 -1.432226,0.425058 -0.08017,-0.07888 -0.366991,-0.794949 -0.153552,-1.101345 0.349685,-0.50198 1.006132,-1.309855 1.442631,-1.637209 0.571789,-0.428814 1.252923,-0.367884 1.861993,-0.880393 z"
       id="path4281"
       inkscape:connector-curvature="0"
       sodipodi:nodetypes="csssccccccscccscsscc" />
    <path
       style="fill:#e9c6af;fill-rule:evenodd;stroke:#ff6600;stroke-width:0.29055119;stroke-linecap:butt;stroke-linejoin:miter;stroke-miterlimit:4;stroke-dasharray:none;stroke-opacity:1"
       d="m 31.611968,57.882519 c -1.722481,2.68458 -1.722915,5.000149 -1.125,7.187501 -0.792103,5.455931 -2.158453,7.753508 -3.25,11.5625 -1.175319,1.458333 -1.594964,2.916667 -1.4375,4.375 l -2.25,2.625 1.8125,1.0625 6.25,2.5625 0.125,-2.875 c 0.288259,-0.269474 0.625142,-0.565675 3.1875,-1 l -0.625,-3.875 c 0.118705,-3.782946 0.624814,-7.63633 2.5625,-11.75 0.479644,-0.775148 1.009433,-1.19929 1.473304,-2.084847 0.214278,-0.409068 0.414489,-0.916592 0.589196,-1.602653 -2.494466,-1.224448 -4.492354,-2.846133 -7.3125,-6.187501 z"
       id="path4323"
       inkscape:connector-curvature="0"
       sodipodi:nodetypes="cccccccccccscc" />
    <path
       style="display:inline;fill:#c8beb7;fill-rule:evenodd;stroke:#ff6600;stroke-width:0.29055119;stroke-linecap:butt;stroke-linejoin:miter;stroke-miterlimit:4;stroke-dasharray:none;stroke-opacity:1"
       d="m 80.811868,83.685444 c -1.544724,0.729167 -1.582757,1.052083 -2.40625,1.78125 -0.664668,0.864583 -1.450083,1.385417 -0.40625,2.25 0.270924,0.01036 0.471672,0.02583 1.21875,-0.28125 0.01763,1.052782 0.426505,1.888382 2.3125,2.0625 1.53125,-0.102644 3.71875,0.0021 4.40625,-0.78125 0.08245,-0.09395 0.53125,-1.5 0.53125,-1.5 -2.031999,-0.814449 -2.904265,-1.331164 -3.5625,-1.90625 z"
       id="path4346-1"
       inkscape:connector-curvature="0"
       sodipodi:nodetypes="ccccccccc" />
    <path
       style="fill:#deaa87;fill-rule:evenodd;stroke:#ff00ff;stroke-width:0.29055119;stroke-linecap:butt;stroke-linejoin:miter;stroke-miterlimit:4;stroke-dasharray:none;stroke-opacity:1"
       d="m 93.986968,70.13252 0.84467,5.265704 -3.96967,2.484296 0.6875,-3.9375 c 0.378191,-1.318381 0.875041,-2.597209 1.75,-3.75 z"
       id="path4329"
       inkscape:connector-curvature="0"
       sodipodi:nodetypes="cccccc" />
    <path
       style="fill:#e9afaf;fill-rule:evenodd;stroke:#ff6600;stroke-width:0.29055119;stroke-linecap:butt;stroke-linejoin:miter;stroke-miterlimit:4;stroke-dasharray:none;stroke-opacity:1"
       d="m 75.799468,61.94502 -1.3125,3.1875 c 0.532127,1.067899 1.182734,1.809982 2.375,1.0625 l 1.4375,-2.9375 z"
       id="path4327"
       inkscape:connector-curvature="0"
       sodipodi:nodetypes="ccccc" />
    <path
       style="fill:#f4e3d7;fill-rule:evenodd;stroke:#ff6600;stroke-width:0.29055119;stroke-linecap:butt;stroke-linejoin:miter;stroke-miterlimit:4;stroke-dasharray:none;stroke-opacity:1"
       d="m 33.844147,16.761939 c 3.682848,0.158117 7.365695,0.240208 11.048543,0.618718 4.12479,2.138748 8.249579,1.505133 12.374369,1.679379 4.97921,-0.632357 9.958421,-0.170032 14.937631,0.353553 l 15.379572,-3.093592 c 2.294503,0.06755 4.589007,-0.0038 6.88351,0.203387 1.476733,0.133325 2.953466,0.912327 4.430199,1.387603 3.983409,3.277758 3.829809,4.489171 4.154249,5.480077 l -1.14904,4.86136 c 1.47886,5.257566 0.32476,9.527776 0.0884,14.142136 -1.51967,4.876854 -2.573526,10.335979 -4.949754,14.142135 0.646608,2.12132 2.079258,4.242641 1.679378,6.363961 -1.696061,1.924532 -4.191682,3.949009 -4.154252,5.656855 -1.751435,1.894777 -2.600861,3.969956 -3.181981,6.098796 l -0.441941,4.949747 c 0.532811,0.938246 0.748819,1.921749 -0.353554,3.093592 l -2.65165,-0.265165 -0.618719,4.772971 C 85.728114,86.961695 84.13712,86.361743 82.546127,85.17452 l -1.502602,-1.767767 c 0.183296,-0.513956 1.206635,-1.195921 2.563262,-1.944544 -0.172796,-1.584355 -0.259551,-3.025309 0.265165,-3.447145 l 4.331029,-6.98268 c 0.294628,-2.710576 0.589255,-3.875842 0.883883,-8.131728 0.570074,-1.409549 2.071513,-1.328913 1.590991,-4.419417 l -1.325826,-2.298097 c -0.578994,0.238344 -0.95346,-0.240683 -1.767767,-1.414213 l -1.502601,-4.33103 c -3.24624,1.068316 -4.497666,2.421606 -6.187185,3.712311 -3.334217,2.817773 -6.767,5.520553 -11.490485,6.717514 -4.419417,0.512433 -8.838835,1.636786 -13.258252,0.618719 l 1.944543,3.358757 c 0.901887,2.176971 -0.121604,2.81364 -0.265165,4.154252 2.009005,4.60252 1.806877,6.678033 2.298097,9.545942 l 1.679379,7.336233 -2.563262,0.795495 -0.883884,4.596194 -4.684582,-1.856155 -4.065864,-1.679379 0.53033,-1.414214 c 2.270343,-1.237925 3.065497,-2.054368 3.712311,-2.828427 0.539228,-2.896251 0.637562,-5.351606 0,-7.071067 -1.944731,-3.649866 -4.808433,-8.103833 -5.038136,-10.253049 l 0.08839,-2.474874 -1.944543,-2.298097 -5.038136,2.651651 c -3.262354,0.238519 -6.13092,-2.279478 -8.927225,-5.303301 l -4.949748,-6.805902 c -1.14504,-1.881259 -1.918125,-4.041484 -2.12132,-6.629127 -3.372142,-3.447635 -4.956866,-7.545241 -5.745243,-11.932427 -1.561527,0.49461 -3.123055,0.380313 -4.684582,-1.237437 C 11.869393,32.630428 9.8668485,31.47891 7.9463605,30.108579 6.5798109,29.677899 6.10161,28.35887 6.6205353,26.042715 6.3568377,23.070643 7.3395895,23.214694 7.9463605,22.418793 L 11.21673,20.032308 10.509623,17.910987 C 10.746976,16.273781 9.283156,15.55259 12.27739,12.43091 L 11.570283,9.6908712 c 0.01118,-1.113779 0.7262,-2.127011 2.386486,-3.0052039 2.421874,-0.1218015 3.847996,0.4202309 4.861359,1.2374369 2.386485,-0.295486 4.772971,-1.1062002 7.159456,-0.08839 l -0.883883,1.767767 c -0.315224,1.5662188 0.202244,2.4662848 1.06066,3.0935918 1.268507,1.068699 2.414331,1.52398 3.447145,1.414213 1.599818,0.512675 2.85456,1.715503 4.242641,2.651653 z"
       id="path4313"
       inkscape:connector-curvature="0"
       sodipodi:nodetypes="cccccsccccccccccccccccccccccccccccccccccccccccccccccccccccccccccc" />
    <path
       style="display:inline;fill:url(#radialGradient7387);fill-opacity:1;fill-rule:evenodd;stroke:none;stroke-width:0.29055119;stroke-linecap:butt;stroke-linejoin:miter;stroke-miterlimit:4;stroke-dasharray:none;stroke-opacity:1"
       d="m 28.435435,53.737056 3.623924,4.772971 c -1.32292,1.45453 -2.800965,2.813598 -1.149049,6.098796 4.433915,0.959975 -0.193615,18.171357 4.028175,18.265165 0.372351,-1.882423 -0.198826,-3.589811 -0.07834,-5.718947 0.163194,-2.883714 1.073688,-6.332486 2.438522,-10.086777 1.400453,-1.095506 1.921073,-2.454962 1.654978,-4.050432 l 3.093592,0.53033 3.535534,-2.65165 c -1.217495,-2.151233 -2.361017,-4.413427 -2.65165,-7.954951 -2.088558,0.350086 -6.477976,0.824402 -9.919259,-1.832416 -5.417625,-4.182642 -10.461101,-12.986619 -12.857519,-16.680594 -0.975032,2.010907 1.84102,6.602555 4.937444,10.682467 0.783982,3.834698 2.760404,7.428418 3.343648,8.626038 z"
       id="path6291-2"
       inkscape:connector-curvature="0"
       sodipodi:nodetypes="ccccscccccsccc" />
    <path
       style="display:inline;fill:url(#radialGradient7214);fill-opacity:1;fill-rule:evenodd;stroke:none;stroke-width:0.29055119;stroke-linecap:butt;stroke-linejoin:miter;stroke-miterlimit:4;stroke-dasharray:none;stroke-opacity:1"
       d="M 55.23632,53.929651 C 72.2846,63.839889 77.63116,46.12057 83.78576,38.108137 82.46052,40.54422 83.25552,44.24629 86.17224,50.217341 l -4.24264,2.032932 c -3.3448,3.681292 -7.5716,5.598606 -11.57887,7.954951 -4.79429,0.569744 -8.4889,2.483546 -15.202798,0.707107 L 54.70599,57.995515 Z"
       id="path6385-2"
       inkscape:connector-curvature="0"
       sodipodi:nodetypes="cccccccc" />
    <path
       style="display:inline;fill:#aa4400;fill-opacity:1;fill-rule:evenodd;stroke:none;stroke-width:0.29055119;stroke-linecap:butt;stroke-linejoin:miter;stroke-miterlimit:4;stroke-dasharray:none;stroke-opacity:1"
       d="m 40.066224,17.138297 c 0,0 -5.314699,5.938928 -4.772971,9.192388 0.696908,4.185426 1.127788,11.153946 4.861359,13.169863 4.732302,2.555176 15.354965,-0.46652 20.594486,-1.679378 4.529017,-1.048389 8.411641,-4.141057 12.020816,-7.071067 3.465098,-2.813047 4.944225,-8.070846 9.015611,-9.899495 2.232019,-1.002504 5.402081,0.682165 7.952757,0.657447 2.486688,-0.0241 4.354023,-1.782372 6.542928,-0.834224 1.51933,1.43631 3.69175,2.165897 4.6387,3.490265 1.51423,2.117736 2.32437,3.074274 1.99044,2.962085 l 0.0884,-4.861359 c -2.16098,-3.323439 -4.0779,-3.962271 -6.01043,-4.772971 -2.787155,-0.555379 -5.077298,-1.235012 -11.490484,-0.883884 L 71.178923,19.613171 C 63.303226,18.80963 57.25482,18.708893 52.440593,19.082841 Z"
       id="path6481-5"
       inkscape:connector-curvature="0"
       sodipodi:nodetypes="csssssscsccccccc" />
    <path
       style="display:inline;fill:#e9c6af;fill-opacity:1;fill-rule:evenodd;stroke:none;stroke-width:0.29055119;stroke-linecap:butt;stroke-linejoin:miter;stroke-miterlimit:4;stroke-dasharray:none;stroke-opacity:1"
       d="m 14.86616,31.15932 c 0.756658,0.250134 0.728164,-1.282815 1.941971,-2.012248 1.932747,-1.161478 2.876562,-5.400418 -1.739621,-6.615354 0.679018,-1.65342 2.255781,-4.596032 2.874604,-5.002517 4.449067,-4.504106 3.147589,-1.134076 2.27586,1.2205 2.965808,1.641654 5.671893,1.548527 5.891351,-1.043809 0.858933,0.466589 5.461983,2.420256 6.526747,2.640821 -1.622102,0.7172 -2.187072,1.095275 -2.819761,2.192648 -1.15246,1.998897 -2.506854,4.87317 -3.426329,7.095441 -0.957782,2.314853 -6.316337,5.600533 -6.486686,6.562654 L 19.197189,33.369028 C 15.985523,34.200057 15.884347,32.083074 14.86616,31.15932 Z"
       id="path4371-9"
       inkscape:connector-curvature="0"
       sodipodi:nodetypes="cscccccssccc" />
    <path
       style="fill:url(#pattern6573);fill-opacity:1;fill-rule:evenodd;stroke:none;stroke-width:0.29055119;stroke-linecap:butt;stroke-linejoin:miter;stroke-miterlimit:4;stroke-dasharray:none;stroke-opacity:1;opacity:0.296"
       d="m 40.208108,16.938715 c 0,0 -5.314699,5.938928 -4.772971,9.192388 0.696908,4.185426 1.127788,11.153947 4.861359,13.169864 4.732302,2.555176 15.354964,-0.46652 20.594485,-1.679378 4.529017,-1.048389 8.411641,-4.141057 12.020816,-7.071068 3.465098,-2.813047 4.944225,-8.070846 9.015611,-9.899495 2.232019,-1.002504 5.402081,0.682165 7.952757,0.657447 2.486688,-0.0241 4.354023,-1.782372 6.542932,-0.834224 1.519321,1.43631 3.691743,2.165897 4.638693,3.490265 1.51423,2.117736 2.32437,3.074274 1.99044,2.962085 l 0.0884,-4.861359 C 100.97965,18.741801 99.062736,18.102969 97.130204,17.292269 94.343048,16.73689 92.052905,16.057257 85.639719,16.408385 l -14.318913,3.005204 c -7.875697,-0.803541 -13.924103,-0.904278 -18.73833,-0.53033 z"
       id="path6481"
       inkscape:connector-curvature="0"
       sodipodi:nodetypes="csssssscsccccccc" />
    <path
       style="fill:url(#pattern6477);fill-opacity:1;fill-rule:evenodd;stroke:none;stroke-width:0.29055119;stroke-linecap:butt;stroke-linejoin:miter;stroke-miterlimit:4;stroke-dasharray:none;stroke-opacity:1;opacity:0.307"
       d="m 55.145739,54.238598 c 17.048278,9.910238 22.394835,-7.809081 28.549436,-15.821514 -1.325233,2.436083 -0.530241,6.138153 2.386486,12.109204 L 81.83902,52.55922 c -3.344804,3.681292 -7.571597,5.598606 -11.578874,7.954951 -4.794292,0.569744 -8.488899,2.483546 -15.202795,0.707107 l -0.441942,-2.916816 z"
       id="path6385"
       inkscape:connector-curvature="0"
       sodipodi:nodetypes="cccccccc" />
    <path
       style="fill:#f4d7d7;fill-rule:evenodd;stroke:#ff0000;stroke-width:0.29055119;stroke-linecap:butt;stroke-linejoin:miter;stroke-miterlimit:4;stroke-dasharray:none;stroke-opacity:1"
       d="m 72.299468,59.19502 c 2.101704,1.649938 4.108736,3.457663 6.6875,4.3125 l 0.125,2.625 c 1.339376,1.35952 2.213467,0.7028 3.0625,-0.0625 l -0.5625,-2.5 1.875,-0.25 1.25,2.5 c 1.009549,0.279224 1.970964,0.446138 2,-1.5625 l -0.625,-2.1875 c 1.282654,-1.616573 2.765369,-2.032784 3.75,-5.437501 l -1.8125,-1 -2,-5.1875 -3.9375,1.625 z"
       id="path4325"
       inkscape:connector-curvature="0"
       sodipodi:nodetypes="cccccccccccccc" />
    <path
       style="fill:#e9ddaf;fill-rule:evenodd;stroke:#ffcc00;stroke-width:0.29055119;stroke-linecap:butt;stroke-linejoin:miter;stroke-miterlimit:4;stroke-dasharray:none;stroke-opacity:1"
       d="M 11.835448,11.193473 C 10.308118,11.552288 9.2868145,10.899051 8.0789431,10.618949 6.7481456,9.8487052 5.8157982,8.5305922 5.4272926,6.4646964 5.7404159,5.3009629 5.9549277,4.08088 7.0624771,3.3711041 7.7431649,2.7559175 8.562099,2.1747131 9.3605741,2.2662498 l 0.088388,3.5797281 C 9.9704445,6.8341665 11.42721,7.0741296 13.117079,7.1276092 l -1.325825,1.856155 z"
       id="path4319"
       inkscape:connector-curvature="0"
       sodipodi:nodetypes="ccccccccc" />
    <path
       style="color:#000000;font-style:normal;font-variant:normal;font-weight:normal;font-stretch:normal;font-size:medium;line-height:normal;font-family:sans-serif;text-indent:0;text-align:start;text-decoration:none;text-decoration-line:none;text-decoration-style:solid;text-decoration-color:#000000;letter-spacing:normal;word-spacing:normal;text-transform:none;direction:ltr;block-progression:tb;writing-mode:lr-tb;baseline-shift:baseline;text-anchor:start;white-space:normal;clip-rule:nonzero;display:inline;overflow:visible;visibility:visible;opacity:1;isolation:auto;mix-blend-mode:normal;color-interpolation:sRGB;color-interpolation-filters:linearRGB;solid-color:#000000;solid-opacity:1;fill:#a28260;fill-opacity:1;fill-rule:evenodd;stroke:none;stroke-width:1px;stroke-linecap:butt;stroke-linejoin:miter;stroke-miterlimit:4;stroke-dasharray:none;stroke-dashoffset:0;stroke-opacity:1;color-rendering:auto;image-rendering:auto;shape-rendering:auto;text-rendering:auto;enable-background:accumulate"
       d="m 8.5006394,1.8528414 c -0.6902531,0.2815813 -1.7329889,0.8945194 -2.1875,1.46875 -0.5030106,0.635505 -1.3469211,1.9193838 -1.3261719,3.2558594 0.020076,1.2931344 0.4372682,2.1983224 0.8554688,2.9238284 0.4182005,0.7255048 1.0088438,1.2089358 1.6464843,1.6386718 0.725254,0.488782 1.6524915,0.833414 2.5019529,1.054687 0.8494625,0.221274 1.4819285,0.189826 2.0273445,0.08594 l -0.09375,-2.169924 c -0.110834,0.02111 -0.753384,0.19133 -1.494141,0.177734 C 9.6326935,10.273748 9.0551385,9.9148092 8.4850144,9.5305762 7.8979687,9.1349382 7.4287651,8.6690912 7.1158737,8.1262792 6.8029824,7.5834662 6.5990873,6.9950452 6.5807175,6.3118258 6.5595036,5.5228287 6.9316246,4.50859 7.3795456,3.9426852 7.6565134,3.5927633 8.2443668,3.2701047 8.4861991,3.324777 8.7280314,3.3794494 8.8003744,3.5954523 8.7408734,4.0344822 8.6369768,4.80109 8.5706393,5.4901725 8.951811,6.2102634 c 0.3337739,0.6305488 0.8860515,1.1127538 1.556641,1.2558588 0.17781,0.03795 0.665617,0.169539 1.220704,0.244141 0.555086,0.0746 2.105356,-0.455641 2.069429,-0.9733698 C 13.762659,6.2191645 12.466246,6.407227 11.988921,6.3430758 11.511596,6.2789246 11.093762,6.1354075 10.840484,6.0813571 10.521607,6.013308 10.269658,5.7751062 10.053374,5.3665133 9.8088625,4.9045936 9.9436825,4.3272155 10.045562,3.5754977 10.123562,3.0000064 10.29333,2.2214019 10.051462,1.8587008 9.8095115,1.4959997 8.9980594,1.6499243 8.5006394,1.8528408 Z"
       id="path4218"
       inkscape:connector-curvature="0"
       sodipodi:nodetypes="ssssssccsssssssscscssssss" />
    <path
       style="fill:#e9c6af;fill-rule:evenodd;stroke:#ff00ff;stroke-width:0.29055119;stroke-linecap:butt;stroke-linejoin:miter;stroke-miterlimit:4;stroke-dasharray:none;stroke-opacity:1"
       d="M 11.21673,13.756735 C 9.9498295,12.105229 8.6829302,12.330986 7.4160305,12.386715 6.3553703,12.597047 5.2947101,12.475795 4.2340499,13.447376 l -2.0771261,1.414213 c 0.4057916,0.770048 1.4257361,1.364623 2.6516504,1.90035 1.2180208,0.686336 2.3859632,1.623064 3.7123106,1.767767 l 1.9003502,-0.618719 0.04419,-2.342291 z"
       id="path4321"
       inkscape:connector-curvature="0"
       sodipodi:nodetypes="ccccccccc" />
    <path
       style="color:#000000;font-style:normal;font-variant:normal;font-weight:normal;font-stretch:normal;font-size:medium;line-height:normal;font-family:sans-serif;text-indent:0;text-align:start;text-decoration:none;text-decoration-line:none;text-decoration-style:solid;text-decoration-color:#000000;letter-spacing:normal;word-spacing:normal;text-transform:none;direction:ltr;block-progression:tb;writing-mode:lr-tb;baseline-shift:baseline;text-anchor:start;white-space:normal;clip-rule:nonzero;display:inline;overflow:visible;visibility:visible;opacity:1;isolation:auto;mix-blend-mode:normal;color-interpolation:sRGB;color-interpolation-filters:linearRGB;solid-color:#000000;solid-opacity:1;fill:#502d16;fill-opacity:1;fill-rule:evenodd;stroke:none;stroke-width:1.0629921;stroke-linecap:butt;stroke-linejoin:miter;stroke-miterlimit:4;stroke-dasharray:none;stroke-dashoffset:0;stroke-opacity:1;color-rendering:auto;image-rendering:auto;shape-rendering:auto;text-rendering:auto;enable-background:accumulate"
       d="m 12.004546,14.58331 c -0.538302,-0.01365 -0.591127,0.2867 -0.03516,0.412109 0.74277,0.167545 0.877992,0.421989 0.996094,0.666016 0.171595,0.354557 0.115506,0.701151 0.0098,1.017578 -0.0913,0.273204 -0.403969,0.437661 -0.601562,0.480469 -0.248138,0.05376 -0.646636,-0.0022 -0.904297,-0.294922 -0.181714,-0.206452 -0.581179,-0.186481 -0.277344,0.253906 0.20662,0.299481 0.618312,0.594438 1.001953,0.564453 0.582615,-0.04554 0.917948,-0.246599 1.441025,-0.852231 -0.03942,-0.590006 0.03599,-1.024694 -0.257427,-1.548159 -0.293446,-0.523466 -0.758288,-0.683626 -1.373082,-0.699219 z"
       id="path4224"
       inkscape:connector-curvature="0"
       sodipodi:nodetypes="sssssssscss" />
    <path
       style="fill:#784421;fill-rule:evenodd;stroke:none;stroke-width:0.29055119;stroke-linecap:butt;stroke-linejoin:miter;stroke-miterlimit:4;stroke-dasharray:none;stroke-opacity:1"
       d="m 14.641778,24.451725 c 0.173171,0.207805 -0.148106,0.982668 -0.574524,1.193242 -0.413759,0.204324 -0.829933,0.38077 -1.126951,0.707107 -0.800045,0.879016 0.04771,1.307488 0.729204,1.104855 0.963517,-0.28649 2.210511,-0.928128 1.922446,-1.789864 -0.18006,-0.538643 -0.41803,-0.970102 -0.950175,-1.21534 z"
       id="path4202"
       inkscape:connector-curvature="0"
       sodipodi:nodetypes="cssssc" />
    <path
       style="color:#000000;font-style:normal;font-variant:normal;font-weight:normal;font-stretch:normal;font-size:medium;line-height:normal;font-family:sans-serif;text-indent:0;text-align:start;text-decoration:none;text-decoration-line:none;text-decoration-style:solid;text-decoration-color:#000000;letter-spacing:normal;word-spacing:normal;text-transform:none;direction:ltr;block-progression:tb;writing-mode:lr-tb;baseline-shift:baseline;text-anchor:start;white-space:normal;clip-rule:nonzero;display:inline;overflow:visible;visibility:visible;opacity:1;isolation:auto;mix-blend-mode:normal;color-interpolation:sRGB;color-interpolation-filters:linearRGB;solid-color:#000000;solid-opacity:1;fill:#502d16;fill-opacity:1;fill-rule:evenodd;stroke:none;stroke-width:1.0629921;stroke-linecap:butt;stroke-linejoin:miter;stroke-miterlimit:4;stroke-dasharray:none;stroke-dashoffset:0;stroke-opacity:1;color-rendering:auto;image-rendering:auto;shape-rendering:auto;text-rendering:auto;enable-background:accumulate"
       d="m 22.897124,15.444638 c -0.890451,0.195273 -1.70319,0.877947 -2.097656,1.96875 -0.170675,0.471961 0.195861,1.528668 0.672335,0.301126 0.386065,-0.99462 1.209069,-1.35406 1.645412,-1.455691 0.366755,-0.08542 1.269967,0.115605 1.620136,0.785425 0.234661,0.448872 -0.08095,1.042299 -0.306258,1.238816 -0.310743,0.271038 -1.014987,0.451276 -1.72415,0.52271 -0.373902,0.03766 -0.984023,0.39343 -0.02075,0.576364 0.889576,0.168939 1.645162,-0.09557 2.112668,-0.585554 0.450984,-0.472666 0.728418,-1.306743 0.934439,-2.038221 -0.870979,-0.729722 -1.887733,-1.521715 -2.836172,-1.313725 z"
       id="path4222"
       inkscape:connector-curvature="0"
       sodipodi:nodetypes="ssssssssscs" />
    <path
       style="opacity:1;fill:#000000;fill-opacity:1;stroke:none;stroke-width:0.35433075;stroke-linecap:round;stroke-linejoin:bevel;stroke-miterlimit:4;stroke-dasharray:none;stroke-dashoffset:0;stroke-opacity:1"
       d="m 24.340977,17.676355 c -0.104715,0.490861 -0.536568,0.842944 -1.038454,0.84664 -0.501887,0.0037 -0.938878,-0.341991 -1.050809,-0.831256 -0.111925,-0.489264 0.131286,-0.99057 0.584855,-1.205465 0.453569,-0.214895 0.995548,-0.08561 1.303271,0.310896 -0.431049,0.147797 -0.869465,0.286386 -1.01193,0.794912 0.435294,-0.126598 0.851472,-0.157624 1.213067,0.08427 z"
       id="path4235"
       inkscape:connector-curvature="0"
       sodipodi:nodetypes="csssccc" />
    <path
       style="display:inline;opacity:1;fill:#000000;fill-opacity:1;stroke:none;stroke-width:0.35433075;stroke-linecap:round;stroke-linejoin:bevel;stroke-miterlimit:4;stroke-dasharray:none;stroke-dashoffset:0;stroke-opacity:1"
       d="m 12.986191,16.34867 c -0.08536,0.400138 -0.437398,0.687148 -0.846524,0.690161 -0.409126,0.003 -0.765351,-0.278783 -0.856595,-0.677621 -0.09124,-0.398837 0.107022,-0.80749 0.47676,-0.982668 0.369739,-0.175177 0.811548,-0.06979 1.062397,0.253436 -0.351382,0.12048 -0.708768,0.233455 -0.824902,0.647994 0.354841,-0.1032 0.6941,-0.128491 0.988864,0.0687 z"
       id="path4235-8"
       inkscape:connector-curvature="0"
       sodipodi:nodetypes="csssccc" />
    <path
       style="color:#000000;font-style:normal;font-variant:normal;font-weight:normal;font-stretch:normal;font-size:medium;line-height:normal;font-family:sans-serif;text-indent:0;text-align:start;text-decoration:none;text-decoration-line:none;text-decoration-style:solid;text-decoration-color:#000000;letter-spacing:normal;word-spacing:normal;text-transform:none;direction:ltr;block-progression:tb;writing-mode:lr-tb;baseline-shift:baseline;text-anchor:start;white-space:normal;clip-rule:nonzero;display:inline;overflow:visible;visibility:visible;opacity:1;isolation:auto;mix-blend-mode:normal;color-interpolation:sRGB;color-interpolation-filters:linearRGB;solid-color:#000000;solid-opacity:1;fill:#916f6f;fill-opacity:1;fill-rule:evenodd;stroke:none;stroke-width:1.77165353;stroke-linecap:butt;stroke-linejoin:miter;stroke-miterlimit:4;stroke-dasharray:none;stroke-dashoffset:0;stroke-opacity:1;color-rendering:auto;image-rendering:auto;shape-rendering:auto;text-rendering:auto;enable-background:accumulate"
       d="m 80.368731,83.336522 c -0.349016,0.293684 -1.095417,0.732618 -1.606231,1.08897 -0.492922,0.34387 -0.787242,0.8006 -1.145753,1.346723 -0.469468,0.715147 -0.733264,1.269613 -0.20732,1.989151 0.269497,0.368696 1.013969,0.550556 1.608521,0.01278 -1.192443,2.168272 2.647286,2.373452 3.860486,2.35928 1.396838,-0.135101 2.533532,-0.320623 3.580057,-1.059542 l 0.370488,-1.810484 -0.811371,-0.258051 -0.516419,0.773586 c -0.541321,0.330085 -1.548095,0.678186 -2.563246,0.690046 -1.101265,0.01287 -2.785084,-0.0956 -3.35426,-0.927225 -0.06091,-0.819833 1.514881,-1.675245 1.913738,-2.311172 l -0.19555,-0.215108 c -0.753846,0.35313 -1.560248,1.242587 -2.088079,1.871517 -0.564195,0.672259 -1.056832,0.474429 -1.119492,0.412775 -0.283739,-0.268971 -0.117726,-0.591146 -0.02799,-0.791836 0.195193,-0.436535 0.751925,-1.035346 1.093112,-1.291221 0.446936,-0.33518 1.105888,-0.644186 1.581965,-1.044786 z"
       id="path4281-4"
       inkscape:connector-curvature="0"
       sodipodi:nodetypes="csssccccccscccscsscc" />
    <path
       style="fill:url(#pattern5904);fill-opacity:1;fill-rule:evenodd;stroke:none;stroke-width:0.29055119;stroke-linecap:butt;stroke-linejoin:miter;stroke-miterlimit:4;stroke-dasharray:none;stroke-opacity:1;opacity:0.283"
       d="m 14.840652,31.257628 c 0.756658,0.250134 0.728164,-1.282815 1.941971,-2.012248 1.932747,-1.161478 2.876562,-5.400418 -1.739621,-6.615354 0.679018,-1.65342 2.255781,-4.596032 2.874604,-5.002517 4.449067,-4.504106 3.147589,-1.134076 2.27586,1.2205 2.965808,1.641654 5.671893,1.548527 5.891351,-1.043809 0.858933,0.466589 5.461983,2.420256 6.526747,2.640821 -1.622102,0.7172 -2.187072,1.095275 -2.819761,2.192648 -1.15246,1.998897 -2.506854,4.87317 -3.426329,7.095441 -0.957782,2.314853 -6.316337,5.600533 -6.486686,6.562654 l -0.707107,-2.828428 c -3.211666,0.831029 -3.312842,-1.285954 -4.331029,-2.209708 z"
       id="path4371"
       inkscape:connector-curvature="0"
       sodipodi:nodetypes="cscccccssccc" />
    <path
       style="display:inline;fill:url(#pattern6289);fill-opacity:1;fill-rule:evenodd;stroke:none;stroke-width:0.29055119;stroke-linecap:butt;stroke-linejoin:miter;stroke-miterlimit:4;stroke-dasharray:none;stroke-opacity:1;opacity:0.294"
       d="M 10.808226,13.754693 C 9.5413255,12.103187 8.2744262,12.328944 7.0075265,12.384673 5.9468663,12.595005 4.8862061,12.473753 3.8255459,13.445334 l -2.0771262,1.414213 c 0.405792,0.770048 1.4257362,1.364623 2.6516505,1.90035 1.2180208,0.686336 2.3859632,1.623064 3.7123106,1.767767 l 1.9003502,-0.618719 0.04419,-2.342291 z"
       id="path4321-5"
       inkscape:connector-curvature="0"
       sodipodi:nodetypes="ccccccccc" />
    <path
       style="fill:url(#pattern6383);fill-opacity:1;fill-rule:evenodd;stroke:none;stroke-width:0.29055119;stroke-linecap:butt;stroke-linejoin:miter;stroke-miterlimit:4;stroke-dasharray:none;stroke-opacity:1;opacity:0.302"
       d="m 28.098904,54.15021 3.623923,4.772971 c -1.32292,1.45453 -2.800964,2.813598 -1.149049,6.098796 4.433915,0.959975 -0.193615,18.171357 4.028175,18.265165 0.372351,-1.882423 -0.198826,-3.589811 -0.07834,-5.718947 0.163194,-2.883714 1.073688,-6.332486 2.438522,-10.086777 1.400453,-1.095506 1.921073,-2.454962 1.654978,-4.050432 l 3.093592,0.53033 3.535534,-2.65165 c -1.217495,-2.151233 -2.361017,-4.413427 -2.65165,-7.954951 -2.088558,0.350086 -6.477976,0.824402 -9.919259,-1.832416 C 27.257706,47.339657 22.21423,38.53568 19.817812,34.841705 c -0.975032,2.010907 1.84102,6.602555 4.937444,10.682467 0.783982,3.834698 2.760404,7.428418 3.343648,8.626038 z"
       id="path6291"
       inkscape:connector-curvature="0"
       sodipodi:nodetypes="ccccscccccsccc" />
    <path
       style="color:#000000;font-style:normal;font-variant:normal;font-weight:normal;font-stretch:normal;font-size:medium;line-height:normal;font-family:sans-serif;text-indent:0;text-align:start;text-decoration:none;text-decoration-line:none;text-decoration-style:solid;text-decoration-color:#000000;letter-spacing:normal;word-spacing:normal;text-transform:none;direction:ltr;block-progression:tb;writing-mode:lr-tb;baseline-shift:baseline;text-anchor:start;white-space:normal;clip-rule:nonzero;display:inline;overflow:visible;visibility:visible;opacity:1;isolation:auto;mix-blend-mode:normal;color-interpolation:sRGB;color-interpolation-filters:linearRGB;solid-color:#000000;solid-opacity:1;fill:#784421;fill-opacity:1;fill-rule:evenodd;stroke:none;stroke-width:2.12598419;stroke-linecap:butt;stroke-linejoin:miter;stroke-miterlimit:4;stroke-dasharray:none;stroke-dashoffset:0;stroke-opacity:1;color-rendering:auto;image-rendering:auto;shape-rendering:auto;text-rendering:auto;enable-background:accumulate"
       d="m 30.518218,58.33331 c -0.666817,1.232323 -1.125691,2.474367 -1.306922,3.850039 -0.163604,1.24187 0.124958,2.370811 0.490425,3.506095 -0.02924,0.188158 -1.257381,1.859272 -1.759324,4.192265 -0.528565,2.456724 -0.730151,4.87079 -1.6453,6.434554 -0.365287,0.624185 -0.793276,1.228908 -1.07265,1.800588 -0.42498,0.869634 0.05206,2.127454 -0.312024,2.980086 -0.222449,0.520935 -0.737496,0.67359 -1.147535,1.005427 -0.622745,0.503977 -0.939377,1.381426 -1.069501,1.988948 0.816842,0.255726 1.480631,0.575063 1.904522,1.257631 1.776014,0.174475 2.552513,0.290592 3.905404,1.195836 0.607903,0.250908 1.041819,0.510264 1.619524,0.688165 0.642172,0.207091 1.312523,0.738055 1.779771,0.51385 0.508887,-0.640072 0.472387,-0.940646 0.385678,-1.617526 -0.143062,-0.560896 -0.0018,-0.974328 -0.160733,-1.446363 0.282658,-0.296869 0.47496,-0.382301 0.779297,-0.394531 -0.785151,0.06576 1.158053,-0.0196 1.248047,-0.0273 0.53671,-0.203914 1.418176,-0.08504 1.467124,-0.504392 0.0979,-0.838708 -0.325402,-2.006541 -0.3427,-2.192636 -0.05903,-0.380435 -0.104902,-1.620103 -0.226761,-1.985681 0.476297,-5.21442 0.753814,-6.943378 2.465893,-11.432702 1.119768,-0.780356 1.547616,-2.300933 1.898156,-3.712744 l -1.119152,-0.329603 c -0.405034,1.268316 -1.130421,2.249953 -2.197977,2.762621 -1.580598,4.627757 -2.554365,9.161897 -2.748858,13.587134 -0.02309,0.525373 0.44786,2.029694 0.564692,2.467644 -1.482435,0.484226 -2.161116,0.525622 -2.985853,1.624238 0.277581,0.671944 0.266441,1.309862 -0.104554,1.862377 -0.192919,-0.06655 -1.095992,-0.355111 -1.351743,-0.451882 -1.492422,-0.813555 -2.858489,-1.904758 -5.047868,-2.142387 0.09644,-0.260266 0.614296,-0.972417 0.784108,-1.09279 0.395011,-0.280008 0.733429,-0.23689 1.090036,-0.836513 0.411553,-0.692005 0.685067,-1.334318 0.712078,-1.850468 0.02701,-0.51615 0.100695,-1.499049 0.217463,-1.658767 0.411822,-0.563298 0.751405,-0.944973 1.043353,-1.488903 1.060914,-1.976598 1.226263,-3.780012 1.769203,-6.303558 0.350093,-1.60958 1.149097,-4.151071 1.406583,-5.777761 -0.391956,-0.976301 -0.77308,-1.636895 -0.681641,-2.683313 0.143419,-1.641278 0.892794,-2.361326 1.868893,-3.606043 z"
       id="path4255"
       inkscape:connector-curvature="0"
       sodipodi:nodetypes="cscssssscccccccccsccccccscccccsssssccscc" />
    <path
       style="color:#000000;font-style:normal;font-variant:normal;font-weight:normal;font-stretch:normal;font-size:medium;line-height:normal;font-family:sans-serif;text-indent:0;text-align:start;text-decoration:none;text-decoration-line:none;text-decoration-style:solid;text-decoration-color:#000000;letter-spacing:normal;word-spacing:normal;text-transform:none;direction:ltr;block-progression:tb;writing-mode:lr-tb;baseline-shift:baseline;text-anchor:start;white-space:normal;clip-rule:nonzero;display:inline;overflow:visible;visibility:visible;opacity:1;isolation:auto;mix-blend-mode:normal;color-interpolation:sRGB;color-interpolation-filters:linearRGB;solid-color:#000000;solid-opacity:1;fill:#ad7a7a;fill-opacity:1;fill-rule:evenodd;stroke:none;stroke-width:1.77165353;stroke-linecap:butt;stroke-linejoin:miter;stroke-miterlimit:4;stroke-dasharray:none;stroke-dashoffset:0;stroke-opacity:1;color-rendering:auto;image-rendering:auto;shape-rendering:auto;text-rendering:auto;enable-background:accumulate"
       d="m 89.424468,56.698544 c -1.229579,2.443693 -2.441425,3.519138 -4.164062,4.964844 l 0.830078,2.677734 c 0.03734,0.120459 0.0114,0.640983 -0.382813,0.88086 -0.30488,0.185517 -0.832557,-0.03262 -0.964844,-0.339844 l -1.101562,-2.560547 c -1.247517,0.59379 -1.416129,0.411434 -2.626953,0.615235 l 0.28125,2.101562 c 0.02809,0.210165 -0.128663,1.003624 -0.695313,1.048828 -0.745934,0.05951 -1.10763,-0.494387 -1.097656,-0.966797 l 0.04687,-2.179687 c -2.621044,-0.44436 -4.024436,-2.537406 -5.693359,-3.964844 l -1.63086,1.095703 c 0.701928,0.597641 1.58444,1.319679 2.574219,2 l -0.841797,2.402344 c -0.360386,1.029053 0.620207,2.134594 1.263672,2.523437 0.714986,0.432063 1.727235,-0.230915 2.228516,-0.884765 0.476595,-0.621651 0.744214,-1.403789 1.050781,-2.144531 0.0047,0.0015 0.009,0.0044 0.01367,0.0059 l 0,1.455078 c 0,1.06838 1.29608,2.071682 2.177734,2.128906 0.926038,0.06011 1.791577,-0.905005 2.03125,-1.86914 0.129693,-0.521719 -0.01817,-1.101685 -0.05273,-1.640625 0.168081,-0.05465 0.328318,-0.09243 0.455078,-0.144532 l 0.8125,1.533204 c 0.43132,0.81391 0.887412,1.712588 2.630859,0.933593 0.995951,-0.445004 1.273444,-1.903877 1.089844,-2.679687 -0.127316,-0.53798 -0.224186,-1.032242 -0.472656,-1.751953 1.857709,-1.707589 2.558858,-3.330509 3.246093,-4.933594 l -1.007814,-0.306682 z m -13.21875,6.25 c 0.449422,0.251558 0.908965,0.490378 1.386719,0.689454 -0.136281,0.39052 -0.274868,0.785773 -0.654297,1.541015 -0.175337,0.349002 -0.568939,0.830475 -1.056641,0.566406 -0.476334,-0.257913 -0.642399,-0.923484 -0.498047,-1.144531 0.525665,-0.804957 0.710518,-1.272774 0.822266,-1.652344 z"
       id="path4261"
       inkscape:connector-curvature="0" />
    <path
       style="color:#000000;font-style:normal;font-variant:normal;font-weight:normal;font-stretch:normal;font-size:medium;line-height:normal;font-family:sans-serif;text-indent:0;text-align:start;text-decoration:none;text-decoration-line:none;text-decoration-style:solid;text-decoration-color:#000000;letter-spacing:normal;word-spacing:normal;text-transform:none;direction:ltr;block-progression:tb;writing-mode:lr-tb;baseline-shift:baseline;text-anchor:start;white-space:normal;clip-rule:nonzero;display:inline;overflow:visible;visibility:visible;opacity:1;isolation:auto;mix-blend-mode:normal;color-interpolation:sRGB;color-interpolation-filters:linearRGB;solid-color:#000000;solid-opacity:1;fill:#784421;fill-opacity:1;fill-rule:evenodd;stroke:none;stroke-width:1px;stroke-linecap:butt;stroke-linejoin:miter;stroke-miterlimit:4;stroke-dasharray:none;stroke-dashoffset:0;stroke-opacity:1;color-rendering:auto;image-rendering:auto;shape-rendering:auto;text-rendering:auto;enable-background:accumulate"
       d="m 3.8949231,12.791728 c -0.7832416,0.691645 -0.8329055,0.947366 -1.0778774,1.082642 -0.2449718,0.135275 -0.9074849,0.230136 -1.0839843,0.591797 -0.08825,0.18083 -0.1063352,0.590929 -0.019531,0.792968 0.3633564,0.845721 1.676851,1.151926 2.2929687,1.503907 l 0.00781,0.0059 0.00977,0.0039 c 1.2210287,0.575643 2.1644079,1.69703 3.8684005,1.990449 1.7039929,0.293419 2.2903244,-0.266786 2.8581644,-0.472777 L 10.410796,17.350888 C 9.7688635,17.583757 9.4321537,17.799441 8.2877487,17.636044 6.6720212,17.339465 5.8375627,16.522687 4.7813091,16.007024 4.1345755,15.763633 3.1994594,15.110261 3.2272021,14.776667 c 0.027743,-0.333594 0.9375505,-0.602771 1.3159137,-0.930231 0.7857493,-0.680039 2.1429392,-0.47006 3.543461,-0.474075 1.6929357,-0.0049 1.8462337,0.608135 2.9804692,0.972656 L 11.90689,12.231736 C 10.729903,11.81492 9.9520175,11.607993 8.2437766,11.614372 c -1.7082411,0.0064 -3.5656123,0.485712 -4.3488535,1.177356 z"
       id="path4210"
       inkscape:connector-curvature="0"
       sodipodi:nodetypes="sssscccscccczssccss" />
    <path
       style="color:#000000;font-style:normal;font-variant:normal;font-weight:normal;font-stretch:normal;font-size:medium;line-height:normal;font-family:sans-serif;text-indent:0;text-align:start;text-decoration:none;text-decoration-line:none;text-decoration-style:solid;text-decoration-color:#000000;letter-spacing:normal;word-spacing:normal;text-transform:none;direction:ltr;block-progression:tb;writing-mode:lr-tb;baseline-shift:baseline;text-anchor:start;white-space:normal;clip-rule:nonzero;display:inline;overflow:visible;visibility:visible;opacity:1;isolation:auto;mix-blend-mode:normal;color-interpolation:sRGB;color-interpolation-filters:linearRGB;solid-color:#000000;solid-opacity:1;fill:#a05a2c;fill-opacity:1;fill-rule:evenodd;stroke:none;stroke-width:2.12598419;stroke-linecap:butt;stroke-linejoin:miter;stroke-miterlimit:4;stroke-dasharray:none;stroke-dashoffset:0;stroke-opacity:1;color-rendering:auto;image-rendering:auto;shape-rendering:auto;text-rendering:auto;enable-background:accumulate"
       d="m 15.31314,5.970029 c -0.882562,0.012043 -1.932257,0.4152335 -2.916016,1.2363282 -0.849428,0.708975 -1.109689,1.289203 -1.142578,2.554687 -0.02055,0.7906868 -0.02256,1.4531778 0.289063,2.3593748 -0.823022,1.42375 -2.3912075,4.443238 -1.7929695,5.734375 0.5982375,1.291137 0.8772225,1.931246 0.8984375,2.25586 -1.7546678,0.800692 -3.0694746,1.475247 -3.9589845,2.662109 -0.875251,1.167837 -0.6426596,2.689535 -0.5566406,3.259766 -0.4767296,1.110646 -0.4375491,2.047405 -0.2460938,2.83789 0.1914554,0.790485 0.2896703,1.293289 0.8339844,1.677735 0.3909342,0.276114 0.9932204,0.431373 1.2480469,0.484375 0.4668525,0.586097 1.6248341,1.300798 2.2011726,1.435547 1.532549,0.358315 2.536894,0.455772 4.03125,0.355468 0.693646,0.911874 1.52775,1.498851 2.388672,1.769532 0.566284,0.138047 1.579599,-0.335879 2.066406,-0.378907 1.048827,4.25004 1.719239,8.739495 5.808594,11.382813 0.7695,9.142456 7.663162,14.760232 11.058593,17.441406 3.390325,2.677143 4.995451,1.957076 6.298829,1.558594 1.303378,-0.398483 2.651434,-1.781135 3.927734,-2.298828 0.196143,0.522108 0.918209,1.681707 1.318359,1.814453 -0.02228,0.966301 -0.464202,2.265913 -0.189453,3.158203 0.464775,1.509428 1.586957,2.307946 1.960938,3.0625 1.279615,2.581792 3.292965,5.012702 3.507812,7.703125 0.236078,2.9563 0.15782,3.642318 -0.36914,5.041016 -0.616968,1.6376 -2.216805,2.320428 -3.65625,2.927734 -0.283924,0.683863 -0.259539,1.190104 -0.148438,2.404297 0.670224,-0.116224 1.481396,0.559511 2.027344,0.49414 0.962121,-0.155781 1.33871,0.378638 1.910156,1.115235 0.304301,0.193236 1.522842,0.361382 2.117188,0.730469 1.064739,0.669489 1.769432,0.306902 2.533203,1.033203 1.911059,0.553498 1.758218,-0.820582 2.0625,-1.673828 -0.148302,-1.177662 -0.5216,-2.106743 0.03516,-2.990235 1.115714,-0.489924 1.53033,-0.0056 2.570312,-0.09375 0.676373,-1.030958 -0.01271,-2.742619 -0.09766,-3.033203 l -0.943359,-3.113281 c -0.01466,-0.168279 -0.392065,-4.254618 -0.876953,-6.644531 -0.401774,-1.980263 -1.847827,-5.247494 -1.947266,-5.554688 0.235575,-1.147114 0.3437,-2.396379 0.291016,-3.550781 -0.0314,-0.688002 -0.89358,-1.962774 -1.121094,-2.607422 5.792111,0.362012 12.172745,-0.0092 17.257812,-3.09375 3.167591,-1.92143 7.519919,-5.299084 8.88086,-6.480469 1.005525,-0.872861 1.454938,-1.203182 2.960937,-1.625 0.830651,1.763708 0.627751,3.168814 1.701172,4.673828 0.201092,0.281946 1.780029,0.541795 2.191406,1.671875 0.283574,0.778995 0.265768,2.468106 -0.134803,3.203431 -0.08704,0.08857 -0.457955,-1.460564 -0.832974,-1.539424 -0.374683,-0.12415 -0.753467,0.716264 -0.857346,0.844579 -0.01573,0.183334 1.034397,1.642622 0.565865,1.929117 -0.391177,0.483967 -0.357116,0.668654 -0.402851,1.368938 -0.07932,1.214537 0.185558,3.242128 0.04687,3.902344 -0.221355,1.053871 -0.269075,1.792379 -0.710938,3.003906 -0.531058,1.456099 -1.334554,2.710428 -1.947265,4.044922 -0.352161,0.767008 -1.221317,1.482322 -1.669922,2.253906 -0.214886,0.369595 -0.59622,0.801208 -0.927734,1.589844 -0.460407,1.09526 0.315926,2.498811 0.253906,2.941406 -0.435302,0.406681 -1.410522,0.680536 -1.894531,0.863281 -0.674309,0.254596 -0.632941,0.624582 -0.886719,1.197266 -0.385382,0.86967 0.4448,1.059842 1.103515,1.529297 1.124404,0.80134 1.791313,1.278026 2.513672,1.84375 0.722359,0.565723 2.27641,0.829818 2.900391,0.949219 0.91741,-0.0148 1.036987,-0.06875 1.453125,-1.371094 0.395781,-1.111198 -0.237726,-2.139939 0.002,-3.058594 1.439181,-0.222302 1.468686,0.263086 2.767578,-0.236328 0.867577,-0.333576 0.871878,-1.49663 0.761719,-2.326172 -0.08299,-0.624927 -0.347863,-0.892447 -0.275123,-1.470895 0.933912,-0.239972 1.98823,-2.449219 3.163527,-2.40667 0.237345,-0.04233 0.751994,-0.558646 0.886681,-0.84551 0.133198,-0.283694 0.11323,-1.078182 0.03079,-1.380629 -0.205906,-1.087132 -0.363226,-1.651116 -0.587393,-2.437923 -0.2269,-0.796402 -0.431066,-2.355275 0.224871,-3.665404 0.655909,-1.31013 0.870263,-1.208019 1.783203,-2.257813 1.171003,-1.34654 2.305189,-1.829684 2.546882,-3.363281 -0.324022,-2.013041 -0.917892,-4.206849 -1.632819,-5.953125 0.740754,-2.449466 2.064371,-4.614228 2.625011,-7.283203 0.58338,-2.777366 2.80544,-5.968056 2.90046,-9.483915 0.01,-0.108932 0.59544,-7.084072 0.2109,-11.220167 -0.26153,-2.316549 0.35756,-4.481392 0.003,-6.518774 -0.54716,-1.86119 -2.62698,-3.92367 -4.326942,-5.150191 -2.822022,-2.036111 -6.43377,-1.403195 -9.164062,-1.552734 -2.923831,-0.16014 -5.912158,0.46969 -8.777344,0.84375 -3.180228,0.415181 -6.150557,1.672644 -8.939453,1.970703 -4.075309,0.435542 -8.497693,-0.420068 -12.912109,-0.46875 -3.740448,-0.04126 -7.004887,0.189934 -10.371094,-0.267578 -1.783623,-0.242416 -3.687426,-1.247551 -5.992188,-1.515625 -3.251035,-0.378139 -8.674038,-0.04656 -9.390625,0.01367 -1.592889,-1.310783 -3.090867,-2.538374 -5.1875,-2.904297 -0.516447,-0.09014 -1.834724,-0.432634 -2.142578,-0.732422 -0.284992,-0.277178 -0.963184,-1.554467 -0.867543,-2.466795 0.0093,-0.0884 0.228981,-1.5870018 0.560547,-1.5761718 0.77299,-0.01888 0.742392,-0.366446 1.132812,-0.179687 C 26.565861,7.4981882 26.866773,7.5364722 25.940093,6.9622164 25.103919,6.4440875 24.673087,6.188 23.768218,6.2239352 22.034438,6.2927891 20.567004,6.9189288 19.12564,6.9876071 17.842102,6.6647427 16.621656,5.952173 15.31314,5.970029 Z m -0.466797,1.3046872 c 0.401059,-0.02466 1.740078,0.284823 2.457031,0.632813 0.472434,0.229306 1.062046,0.471693 1.570313,0.601562 1.510783,-0.04708 3.075703,-0.323786 4.455078,-0.289062 1.179112,0.03861 1.446552,0.130135 1.810547,0.140625 -0.246325,0.282366 -0.436824,0.634248 -0.521485,1.6464838 -0.08466,1.012236 0.332058,2.204087 1.113282,2.964844 0.69257,0.674427 1.543043,0.932469 2.349609,1.144531 1.866949,0.490858 3.676164,1.650259 5.431641,3.59375 0,0 6.556938,0.235536 9.46875,0.574219 1.774692,0.20642 3.665252,1.201035 5.951171,1.511719 3.788995,0.514974 7.310919,-0.128252 10.791016,-0.08984 4.184436,0.04615 8.717985,0.810329 13.19336,0.332031 3.205285,-0.342559 6.065915,-1.548864 8.863281,-1.914062 2.773,-0.362022 5.570521,-1.291446 8.324219,-1.140625 3.064525,0.167845 5.903098,0.636657 8.035156,1.560547 0.735752,0.318825 2.116628,0.931098 2.554218,1.44871 1.59606,1.887951 1.95478,4.415993 1.73719,5.414376 0.0143,0.116543 -1.54513,-3.228942 -3.514109,-3.521691 -1.351776,-0.200983 -2.234564,-2.22796 -2.474022,-1.959047 -0.388147,0.435893 0.873064,1.861033 1.951554,2.741907 0.978661,0.799338 2.304407,1.235481 2.317187,1.343652 0.18438,1.559999 0.35637,3.125794 0.49439,4.621936 0.34026,3.65983 -0.35742,13.027344 -0.35742,13.027344 -0.0399,1.432976 -0.898962,4.43559 -1.582035,7.6875 -0.604134,2.733732 -2.220424,5.132357 -2.910156,7.417969 1.29895,2.506103 1.339383,4.647866 1.05664,6.189453 -0.145619,0.793952 -0.664182,1.483666 -1.576172,2.201172 -1.17267,0.922596 -1.99367,2.893214 -2.578125,4.486328 -2.610576,2.174696 -2.638111,5.485665 -3.060584,8.389629 -0.11146,0.766144 0.504371,1.951585 0.544959,2.645527 0.03835,0.655657 -0.416853,1.26892 -0.402343,1.382813 -1.245972,0.05369 -2.21483,-0.688202 -2.941407,-0.03711 -0.13157,1.596625 -0.234254,4.337871 -0.878906,4.306641 -2.511176,-0.402139 -4.476591,-2.551353 -4.857422,-2.890625 0.941279,-0.442786 1.782426,-1.079198 2.41211,-1.726563 0.180546,-1.048238 0.01517,-2.055862 0.43164,-3.017578 0.758942,-1.752565 1.056712,-1.577464 1.552735,-2.722656 0.670595,-1.460564 2.022171,-3.342077 2.544922,-4.775391 0.403638,-1.106727 0.419203,-2.553001 0.705078,-3.914062 0.244629,-1.164664 0.307008,-2.461361 0.425781,-3.679688 0.07692,-0.789011 1.093658,-2.131024 1.410156,-3.390625 0.310077,-1.234046 0.25919,-2.312968 -0.345703,-3.46875 -0.493725,-0.943371 -1.951181,-1.236891 -2.521484,-2.089843 -0.756482,-1.131405 -0.771121,-2.477859 -1.501954,-3.867188 -0.524308,-0.996723 -0.667133,-1.570375 -1.451171,-3.279297 -0.756272,-1.648402 -1.673263,-4.191169 -1.441407,-6.283203 0.444721,-4.012722 1.31144,-5.852365 2.808594,-9.203125 1.497154,-3.35076 3.162995,-5.845652 3.347656,-6.091797 0.674946,-0.899675 -0.0853,-1.206617 -0.65625,-0.648437 -0.220031,0.215112 -2.11881,2.468302 -3.660156,5.917969 -1.541346,3.449663 -3.199992,6.481423 -3.388672,9.955078 -0.10048,1.849865 0.828766,4.81025 1.738282,6.535156 0.465502,0.882836 0.868636,1.726614 1.164062,2.363281 -1.362984,0.326822 -2.733963,0.570028 -3.767578,1.375 -2.455112,1.912024 -5.871402,4.74821 -8.457031,6.109375 -5.471537,2.880407 -11.161834,4.101756 -17.03711,3.390625 -0.235141,-0.753684 -0.510171,-1.564059 -0.410156,-2.396484 0.117042,-0.974123 0.02385,-2.008051 -0.0293,-3.300781 -0.04158,-1.011581 -0.49575,-1.905792 -0.46289,-2.279297 0.0077,-0.08727 0.212276,-0.70665 0.333984,-1.044922 0.121708,-0.33827 0.354201,-0.863031 0.544922,-1.134766 0.922251,-1.314 -0.125955,-1.233759 -0.890625,-0.445312 -0.231128,0.238315 -0.492642,0.762096 -0.638672,1.167968 -0.14603,0.405873 -0.3139,0.862829 -0.361328,1.402344 -0.09641,1.096673 0.25831,1.870963 0.277343,2.333985 0.03592,0.873702 -0.213224,1.87926 -0.353515,3.046874 -0.08875,0.738693 -0.112632,1.566065 0.04687,2.25586 0.159521,0.689795 0.338332,1.174856 0.755859,1.996094 0.417527,0.821238 1.602788,1.536354 1.75,2.648437 0.157505,1.189836 -0.03062,2.454034 -0.224609,3.546875 0.532963,1.940953 0.887304,3.836918 1.292969,5.796875 0.439704,2.124413 1.154295,6.146481 1.154297,6.146485 0.231216,0.927143 0.520838,2.24141 0.80664,3.15625 1.02455,1.797724 -0.618263,1.737827 -1.238281,1.921874 -0.603908,0.183893 -0.536221,0.668389 -0.941406,1.351563 -0.425286,1.069755 -0.515256,2.032929 -0.458985,3.035156 0.174165,0.706062 -1.737934,-0.123007 -3.71875,-1.492187 -0.795953,-0.693058 -2.092156,-1.120431 -3.103515,-1.517578 0.0991,-1.294952 2.896031,-2.076728 3.328125,-3.408204 0.597325,-1.899045 0.6258,-3.92207 0.355468,-5.804687 -0.442124,-3.079 -1.744624,-5.89993 -3.044922,-8.523437 -0.665632,-1.343003 -1.647098,-2.099133 -1.861328,-2.830079 -0.287057,-0.97943 -0.251392,-2.008257 -0.255859,-2.951171 -0.786254,-0.753321 -1.521185,-1.520369 -2.40625,-3.210938 -0.885064,-1.69057 -2.229984,-4.189223 -2.691406,-7.029297 -0.03766,-0.231811 -0.07562,-0.581313 -0.113281,-1.025391 -0.993077,0.250887 -1.841634,0.136036 -2.791016,-0.277343 -1.009469,-0.439546 -2.317802,-1.785106 -3.207031,-2.740235 -0.711354,-0.764072 -1.437642,-2.442169 -1.867188,-3.792968 -0.429545,-1.3508 0.380748,-2.804342 -0.400391,-2.869141 -0.781139,-0.0648 -1.265617,2.08086 -0.771484,3.634766 0.494132,1.553906 1.107947,2.699301 2.148438,3.9375 0.804598,0.957483 2.000481,2.233434 3.142578,2.914062 0.809866,0.482636 2.048032,0.830046 2.791015,0.820313 0.653559,2.39617 1.226845,4.795417 2.44336,7.134765 -1.243102,0.507045 -2.235567,1.339454 -3.345703,1.712891 -0.975888,0.328284 -1.904592,-0.05554 -3.423828,-1.001953 -5.29909,-3.301079 -10.374841,-8.270593 -12.820313,-16.482422 -3.674961,-5.633414 -4.677956,-8.700025 -5.810547,-12.777344 -0.710094,0.03982 -1.483329,0.320416 -2.167969,0.316406 -0.519758,0.128173 -0.968693,-0.485869 -1.544921,-0.808593 -0.137566,-0.411809 -0.329235,-0.843207 -0.802735,-0.935547 -1.195374,0.03301 -2.383682,0.01133 -3.427734,-0.08789 -0.613812,-0.05834 -1.179992,-0.67395 -1.548828,-0.830078 0.604471,-0.104788 1.319017,-0.441451 1.996093,-0.240234 0.685269,0.20365 1.489876,-0.01973 2.212891,-0.265625 1.133541,0.988668 2.335299,1.158363 3.197266,0.822265 0.861966,-0.336099 1.784326,-0.975318 2.363281,-2.367187 0.220164,-1.082835 -0.667077,-0.681481 -0.960938,-0.142578 -0.400713,0.963357 -1.184621,1.680993 -2.332031,1.783203 -1.323482,0.117894 -1.345752,-0.257994 -2.214844,-1.121094 -0.998829,0.75599 -1.80332,0.378198 -2.638671,0.185547 -0.615727,-0.142001 -1.298872,0.15583 -1.8398445,0.257812 -0.4979099,0.09387 -0.9923171,0.145602 -1.7324221,-0.04492 -0.2559313,-0.124424 -0.4722471,-0.294887 -0.6132813,-0.498047 0.02428,-0.936181 0.2518688,-1.249983 0.6386719,-1.96875 0.5410061,0.251008 1.0654998,0.353236 1.1308594,-0.02344 0.2898196,-1.670216 -0.760433,-1.812014 -1.4648438,-1.869141 0.3909193,-1.655775 1.9865569,-3.394095 2.8741154,-3.787623 0.887558,-0.393529 1.090482,-0.546622 1.20401,-0.706517 1.028512,-1.448571 2.442412,-3.368531 3.351563,-4.09961 0.430032,-0.595414 0.300427,-0.927309 -0.314454,-0.558593 -0.921481,0.740993 -2.21466,2.143359 -3.251953,3.480469 -0.05868,-0.327304 -0.183291,-0.647637 -0.382812,-1.107422 -0.224111,-0.52116 -0.456433,-1.563635 -0.197266,-2.339844 0.548681,-1.643306 0.851286,-1.927849 1.667969,-3.042969 0.08563,-0.116919 1.348106,-1.154276 1.308141,-1.250446 -0.03997,-0.09617 -0.610298,0.106302 -0.968876,0.288874 -0.259913,0.132336 -0.47031,0.33472 -0.48854,0.287391 -0.441627,-1.146578 -0.390875,-1.518643 -0.399553,-2.1070688 -0.0062,-0.420199 0.447504,-1.487894 0.892578,-1.859375 0.343679,-0.286852 0.952041,-0.586715 1.796883,-0.638676 z M 93.52603,70.725888 c 0.298448,1.155591 0.207884,2.923848 0.510916,3.990275 -1.285585,0.868199 -1.905418,2.48078 -2.706228,2.5566 0.26951,-1.547804 0.900929,-5.631668 2.195312,-6.546875 z"
       id="path4169"
       inkscape:connector-curvature="0"
       sodipodi:nodetypes="ssscscscsscsccccssccsssscccccccccccscscsscssccccscsssscsssscccssccscscsccscccssssssscssccccscscscccssscsssssssscssscccccsscsscccccscssssssssssssssscsscsccssssssscsscsccccccccssscsscsssssssccsscccccccscsccscsccccscssccccsszscssccccc" />
    <path
       style="fill:#e9ddaf;fill-rule:evenodd;stroke:#668000;stroke-width:0.29055119;stroke-linecap:butt;stroke-linejoin:miter;stroke-miterlimit:4;stroke-dasharray:none;stroke-opacity:1"
       d="M 28.319875,13.800929 C 27.248444,13.552232 26.224165,12.973478 25.270477,11.90058 25.06267,10.234528 24.561753,8.8314852 26.596303,7.9672982 l -3.314564,-4.0658639 -0.53033,-1.767767 c 1.444583,-0.7318109 2.729346,0.2943997 4.065864,0.751301 2.939179,1.5643231 3.721119,2.8589912 4.861359,4.1984469 0.464419,1.168488 1.435708,2.300771 0.353554,3.5797278 -0.544435,1.710095 -1.922681,1.752567 -3.137787,2.12132 z"
       id="path4317"
       inkscape:connector-curvature="0"
       sodipodi:nodetypes="cccccccccc" />
    <path
       style="fill:#e9c6af;fill-rule:evenodd;stroke:none;stroke-width:0.29055119;stroke-linecap:butt;stroke-linejoin:miter;stroke-miterlimit:4;stroke-dasharray:none;stroke-opacity:1"
       d="m 27.656963,15.966444 0.972271,2.563262 c 1.139008,0.847507 1.947622,1.144358 2.740039,1.414213 1.090123,0.433725 2.180246,0.652002 3.270369,0.265165 0.944951,-0.446226 1.735867,-0.584381 3.005204,-1.679379 l 1.59099,-1.370019 -3.889087,-3.226174 c -1.513189,-0.271153 -2.873404,-1.307179 -4.596194,-0.53033 z"
       id="path4315"
       inkscape:connector-curvature="0"
       sodipodi:nodetypes="ccccccccc" />
    <path
       style="display:inline;fill:#c87137;fill-opacity:1;fill-rule:evenodd;stroke:none;stroke-width:0.29055119;stroke-linecap:butt;stroke-linejoin:miter;stroke-miterlimit:4;stroke-dasharray:none;stroke-opacity:1"
       d="m 28.620343,16.958934 c 0.822429,-0.767718 1.752689,-2.229582 3.889087,-2.121321 2.416355,0.323887 4.166369,1.643857 4.949747,2.828427 0,0.227016 -3.670031,1.631548 -4.154252,1.502602 -1.491752,-0.397247 -5.349382,-1.766508 -4.684582,-2.209708 z"
       id="path6000-0"
       inkscape:connector-curvature="0"
       sodipodi:nodetypes="cccsc" />
    <path
       style="fill:url(#pattern6092);fill-opacity:1;fill-rule:evenodd;stroke:none;stroke-width:0.29055119;stroke-linecap:butt;stroke-linejoin:miter;stroke-miterlimit:4;stroke-dasharray:none;stroke-opacity:1;opacity:0.31"
       d="m 28.629235,16.938716 c 0.822429,-0.767718 1.752689,-2.229582 3.889087,-2.121321 2.416355,0.323887 4.166369,1.643857 4.949747,2.828427 0,0.227016 -3.670031,1.631548 -4.154252,1.502602 -1.491752,-0.397247 -5.349382,-1.766508 -4.684582,-2.209708 z"
       id="path6000"
       inkscape:connector-curvature="0"
       sodipodi:nodetypes="cccsc" />
    <path
       style="color:#000000;font-style:normal;font-variant:normal;font-weight:normal;font-stretch:normal;font-size:medium;line-height:normal;font-family:sans-serif;text-indent:0;text-align:start;text-decoration:none;text-decoration-line:none;text-decoration-style:solid;text-decoration-color:#000000;letter-spacing:normal;word-spacing:normal;text-transform:none;direction:ltr;block-progression:tb;writing-mode:lr-tb;baseline-shift:baseline;text-anchor:start;white-space:normal;clip-rule:nonzero;display:inline;overflow:visible;visibility:visible;opacity:1;isolation:auto;mix-blend-mode:normal;color-interpolation:sRGB;color-interpolation-filters:linearRGB;solid-color:#000000;solid-opacity:1;fill:#a28260;fill-opacity:1;fill-rule:evenodd;stroke:none;stroke-width:1.41732287;stroke-linecap:butt;stroke-linejoin:miter;stroke-miterlimit:4;stroke-dasharray:none;stroke-dashoffset:0;stroke-opacity:1;color-rendering:auto;image-rendering:auto;shape-rendering:auto;text-rendering:auto;enable-background:accumulate"
       d="m 25.113921,1.5657321 c -0.719202,-0.1645086 -2.267326,-0.295787 -2.869141,0.1796875 -0.300907,0.237737 -0.06612,1.0051411 0.242188,1.5644531 0.234716,0.4258019 0.572185,0.9729235 0.908203,1.3867187 0.596665,0.734773 1.253465,1.3691596 1.984375,2.1796876 0.207073,0.2296302 0.751777,0.7088582 0.794922,0.9843752 -0.232049,0.07248 -0.554713,0.122838 -0.787109,0.289062 -0.691432,0.494553 -0.821013,1.184978 -0.824219,1.9589848 -0.0032,0.774006 0.09861,1.18566 0.43164,1.935547 0.346354,0.779892 0.861457,1.304511 1.488282,1.59375 0.793431,0.366117 1.278907,0.568794 2.046875,0.476565 0.24293,-0.212077 0.363624,-0.511848 0.529297,-0.773438 0.616511,0.04336 2.079657,-0.699294 2.640623,-1.375 0.637796,-0.768251 1.288322,-1.625542 1.367187,-2.4882808 0.09088,-0.994198 -0.138547,-2.095255 -0.707029,-2.988284 -0.568482,-0.8930295 -1.595832,-1.8556367 -2.355469,-2.4238281 -1.326915,-0.9925022 -3.001981,-2.0679961 -4.890625,-2.5 z m -0.06641,1.5703125 c 1.513337,0.3486467 2.602904,1.2341429 3.921875,2.2207031 0.59276,0.4433708 1.287285,1.2178789 1.757812,1.9570315 0.470528,0.739152 0.722242,1.507141 0.679688,1.972656 -0.0434,0.474777 -0.34712,1.2243868 -0.802734,1.7792968 -0.455615,0.55491 -1.012205,0.888838 -1.546876,0.888672 -0.62965,-1.96e-4 -0.464311,0.905914 -0.855471,1.097656 -0.282737,0.138594 -1.157396,-0.269823 -1.359375,-0.37891 -0.272922,-0.147403 -0.631578,-0.517277 -0.894531,-1.109375 -0.27628,-0.622104 -0.226882,-0.941749 -0.216797,-1.417969 0.01497,-0.7070678 0.156052,-1.4000678 0.517578,-1.4179688 0.646183,-0.032 1.005421,1.243732 1.611316,1.4492188 0,0 -0.20443,-0.8111978 -0.32227,-1.3105468 -0.266617,-1.129793 -0.944471,-2.1219764 -1.667946,-2.939449 -0.786985,-0.8892341 -2.443546,-2.047818 -2.339843,-2.7753906 0.0394,-0.276425 0.592428,-0.2287626 1.517574,-0.015625 z"
       id="path4214"
       inkscape:connector-curvature="0"
       sodipodi:nodetypes="ssssscssssccsssssssssssssssscssss" />
    <path
       style="color:#000000;font-style:normal;font-variant:normal;font-weight:normal;font-stretch:normal;font-size:medium;line-height:normal;font-family:sans-serif;text-indent:0;text-align:start;text-decoration:none;text-decoration-line:none;text-decoration-style:solid;text-decoration-color:#000000;letter-spacing:normal;word-spacing:normal;text-transform:none;direction:ltr;block-progression:tb;writing-mode:lr-tb;baseline-shift:baseline;text-anchor:start;white-space:normal;clip-rule:nonzero;display:inline;overflow:visible;visibility:visible;opacity:1;isolation:auto;mix-blend-mode:normal;color-interpolation:sRGB;color-interpolation-filters:linearRGB;solid-color:#000000;solid-opacity:1;fill:#784421;fill-opacity:1;fill-rule:evenodd;stroke:none;stroke-width:1px;stroke-linecap:butt;stroke-linejoin:miter;stroke-miterlimit:4;stroke-dasharray:none;stroke-dashoffset:0;stroke-opacity:1;color-rendering:auto;image-rendering:auto;shape-rendering:auto;text-rendering:auto;enable-background:accumulate"
       d="m 32.360015,12.278622 c -0.293554,0.01183 -1.245795,0.103153 -1.767578,0.189454 -1.034352,0.171079 -1.717053,0.574293 -2.414063,0.730468 -0.836057,1.00843 -1.049079,1.956989 -0.792198,2.778971 0,0 0.324291,1.517677 0.557278,1.417602 0.232987,-0.100075 0.256836,-0.573505 0.313069,-1.012094 0.03707,-0.289171 0.27241,-0.736607 0.742164,-0.817291 0.876457,-0.150541 1.399089,-0.978342 2.349609,-1.181641 0.950521,-0.203299 2.062732,0.25046 2.841797,0.595705 2.276286,1.00874 2.057726,0.489664 3.517578,1.861328 0.223744,0.210228 0.810483,0.449921 0.657332,0.632981 -0.294879,0.352466 -0.482991,0.548768 -0.831166,0.679508 -0.731936,0.856184 -1.605605,1.070349 -2.535157,1.427735 -0.688688,0.264781 -1.3873,0.232679 -2.208985,0.175781 -1.742064,-0.120631 -2.856715,-0.815186 -4.298828,-1.669922 -0.248946,2.113293 -0.673494,4.548321 -1.550777,6.457032 -0.806957,1.755702 -0.940451,3.309847 -3.080078,4.203124 -0.903274,0.37711 -2.556453,0.150437 -2.581443,0.559879 -0.02499,0.409443 1.870729,0.903988 3.022849,0.336605 2.107098,-1.03767 2.601553,-3.223398 3.357422,-4.830078 0.637836,-1.35579 0.936911,-4.210337 1.126953,-5.742188 1.168655,0.593959 2.904897,1.8357 4.117188,1.810547 0.766695,-0.01591 1.54627,0.153685 2.449218,-0.339844 0.81146,-0.443524 1.763341,-0.835001 2.857422,-1.99414 0.429576,-0.115603 0.875724,-0.218936 1.179688,-0.617188 0.176613,-0.231397 0.253834,-0.593773 0.160156,-0.904297 -0.09368,-0.310523 -0.298578,-0.572386 -0.595703,-0.851562 -1.436332,-1.349564 -2.234247,-2.440106 -4.638672,-3.5 -0.84233,-0.371307 -1.136948,-0.429446 -1.955075,-0.396475 z"
       id="path4206"
       inkscape:connector-curvature="0"
       sodipodi:nodetypes="sscszsssssscsscsszsscsscsssss" />
    <path
       style="color:#000000;font-style:normal;font-variant:normal;font-weight:normal;font-stretch:normal;font-size:medium;line-height:normal;font-family:sans-serif;text-indent:0;text-align:start;text-decoration:none;text-decoration-line:none;text-decoration-style:solid;text-decoration-color:#000000;letter-spacing:normal;word-spacing:normal;text-transform:none;direction:ltr;block-progression:tb;writing-mode:lr-tb;baseline-shift:baseline;text-anchor:start;white-space:normal;clip-rule:nonzero;display:inline;overflow:visible;visibility:visible;opacity:1;isolation:auto;mix-blend-mode:normal;color-interpolation:sRGB;color-interpolation-filters:linearRGB;solid-color:#000000;solid-opacity:1;fill:#784421;fill-opacity:1;fill-rule:evenodd;stroke:none;stroke-width:1.0629921;stroke-linecap:butt;stroke-linejoin:miter;stroke-miterlimit:4;stroke-dasharray:none;stroke-dashoffset:0;stroke-opacity:1;color-rendering:auto;image-rendering:auto;shape-rendering:auto;text-rendering:auto;enable-background:accumulate"
       d="m 18.241625,16.399479 c -0.76911,0.668757 -1.460805,1.441617 -2.041766,2.224847 -0.586988,0.791355 -1.076577,1.587737 -1.371094,2.332031 -0.344268,0.870024 -0.285957,1.413347 -0.638675,2.193359 0.884903,0.164014 2.013295,0.406406 2.634766,0.888674 0.528411,0.410052 0.88476,1.181033 0.822265,1.626953 -0.169151,1.20695 -0.450234,1.615143 -0.769531,2.125 -0.309428,0.494097 0.07567,0.658916 0.394531,0.261719 0.317852,-0.395934 1.026809,-1.029544 1.205078,-2.072266 0.157729,-0.922583 -0.23942,-1.761288 -0.904296,-2.367187 -0.546217,-0.497765 -1.417094,-0.731078 -2.15625,-0.972656 -0.0055,-0.264927 0.0024,-0.783997 0.234374,-1.332032 0.269538,-0.636711 0.671255,-1.458559 1.214844,-2.191406 0.521036,-0.702441 1.084538,-1.441189 1.762003,-2.038295 0.736116,-0.6488 1.650407,-1.307571 1.523769,-1.466876 -0.126639,-0.159305 -1.12495,0.105502 -1.910018,0.788135 z"
       id="path4179"
       inkscape:connector-curvature="0"
       sodipodi:nodetypes="ssscsssssscssszs" />
    <path
       style="fill:#e9c6af;fill-rule:evenodd;stroke:none;stroke-width:0.29055119;stroke-linecap:butt;stroke-linejoin:miter;stroke-miterlimit:4;stroke-dasharray:none;stroke-opacity:1"
       d="m 102.24601,39.678569 c 1.07343,3.540885 1.72301,7.823512 2.48559,11.908379 0.11943,2.457851 -0.25022,4.100576 -0.61871,5.745242 -0.68961,1.100864 -1.44805,1.811733 -2.38649,1.502602 l -3.403334,-1.814182 -1.417894,2.923097 -2.86856,2.515008 c -1.078585,-1.876548 -1.614935,-3.703803 -1.777571,-5.497083 0.322433,-1.59901 0.667776,-3.183293 2.131124,-4.048859 1.972986,-0.701336 4.055905,-0.969641 5.864885,-0.358915 0.4621,-2.091932 0.72728,-3.166927 0.73192,-5.358839 1.19154,-2.413201 1.71929,-4.112177 1.25904,-7.51645 z"
       id="path4306"
       inkscape:connector-curvature="0"
       sodipodi:nodetypes="cccccccccccc" />
    <path
       style="fill:url(#pattern5998);fill-opacity:1;fill-rule:evenodd;stroke:none;stroke-width:0.29055119;stroke-linecap:butt;stroke-linejoin:miter;stroke-miterlimit:4;stroke-dasharray:none;stroke-opacity:1;opacity:0.288"
       d="m 100.04947,52.75752 c -1.273426,-0.385107 -2.10642,-1.265697 -4.625002,-0.25 -1.876527,1.309337 -2.997413,2.607919 -3.375,4.75 0.729167,2.457347 1.458333,4.619666 2.1875,4.9375 0.994344,-0.946705 0.374068,-1.547419 3.4375,-2.9375 l 0.625,-2.25 3.625002,2.125 c 1.74065,-0.600736 3.22206,-1.529832 2.5,-5.25 -1.69647,-1.168799 -3.1783,-1.622105 -4.375,-1.125 z"
       id="path5906"
       inkscape:connector-curvature="0"
       sodipodi:nodetypes="ccccccccc" />
    <path
       style="display:inline;fill:url(#radialGradient7548);fill-opacity:1;fill-rule:evenodd;stroke:none;stroke-width:0.29055119;stroke-linecap:butt;stroke-linejoin:miter;stroke-miterlimit:4;stroke-dasharray:none;stroke-opacity:1"
       d="m 100.42707,52.746918 c -1.273431,-0.385107 -2.106421,-1.265697 -4.625011,-0.25 -1.87652,1.309337 -2.99741,2.607919 -3.375,4.75 0.72917,2.457347 1.45834,4.619666 2.1875,4.9375 0.99435,-0.946705 0.37407,-1.547419 3.4375,-2.9375 l 0.625,-2.25 3.625011,2.125 c 1.74065,-0.600736 3.22206,-1.529832 2.5,-5.25 -1.69647,-1.168799 -3.1783,-1.622105 -4.375,-1.125 z"
       id="path5906-7"
       inkscape:connector-curvature="0"
       sodipodi:nodetypes="ccccccccc" />
    <path
       style="color:#000000;font-style:normal;font-variant:normal;font-weight:normal;font-stretch:normal;font-size:medium;line-height:normal;font-family:sans-serif;text-indent:0;text-align:start;text-decoration:none;text-decoration-line:none;text-decoration-style:solid;text-decoration-color:#000000;letter-spacing:normal;word-spacing:normal;text-transform:none;direction:ltr;block-progression:tb;writing-mode:lr-tb;baseline-shift:baseline;text-anchor:start;white-space:normal;clip-rule:nonzero;display:inline;overflow:visible;visibility:visible;opacity:1;isolation:auto;mix-blend-mode:normal;color-interpolation:sRGB;color-interpolation-filters:linearRGB;solid-color:#000000;solid-opacity:1;fill:#a05a2c;fill-opacity:1;fill-rule:evenodd;stroke:none;stroke-width:2.12598419;stroke-linecap:butt;stroke-linejoin:miter;stroke-miterlimit:4;stroke-dasharray:none;stroke-dashoffset:0;stroke-opacity:1;color-rendering:auto;image-rendering:auto;shape-rendering:auto;text-rendering:auto;enable-background:accumulate"
       d="m 102.3815,37.003232 -1.02539,1.289062 c 0.99575,5.022695 3.24167,10.927089 2.03125,14.982422 0.003,1.500746 0.39176,3.543827 -0.89258,4.208985 -1.57174,0.814006 -3.157032,-0.77145 -4.595703,-1.636719 -0.303446,1.269952 -0.465788,2.666559 -1.355468,3.138672 -0.458079,0.186852 -1.74593,0.767612 -2.453125,2.458984 -0.658971,-0.906898 -1.077749,-3.160075 -1.013672,-3.847656 0.128334,-1.377098 0.389172,-2.559767 1.21289,-3.554688 1.287176,-1.554704 3.873594,-1.588663 5.417966,-0.980468 l 0.814462,0.322265 0.4707,-0.738281 c 0.9794,-1.536488 0.79015,-3.81858 0.23242,-6.283203 l -1.246092,0.746094 c 0.381352,1.685173 0.316722,3.646338 -0.11524,4.611328 -2.184998,-0.395078 -5.00757,-0.549844 -6.611325,1.191406 -1.09373,1.1875 -1.482433,2.944581 -1.496094,4.505859 -0.01371,1.567377 0.874415,3.016979 1.544922,4.433594 0.368198,0.777912 0.777611,1.275642 1.207031,1.625 -0.186579,-0.749151 0.41624,-1.057287 0.728516,-1.529297 0.396522,-0.599349 0.94551,-1.067276 1.833984,-1.429687 0.645661,-0.263367 0.885773,-1.800107 1.507813,-2.607422 1.089253,0.551721 2.502415,1.930678 3.851565,1.80664 1.39822,-0.128548 2.01186,-1.156558 2.49414,-2.242187 0.49296,-1.109663 0.38224,-2.257626 0.37109,-3.792969 -0.0384,-5.291994 -1.94657,-11.797553 -2.91406,-16.677734 z m -4.603516,16.232422 c -0.536815,0.0169 -1.073289,0.117134 -1.570313,0.347656 -1.328762,0.616285 -2.159375,2.011835 -2.539062,3.373047 -0.379686,1.361213 -0.04854,2.765359 0.226562,2.806641 0.275103,0.04128 -0.02221,-1.363142 0.328125,-2.619141 0.350339,-1.255998 1.42994,-2.592367 2.22461,-2.960938 0.681197,-0.315942 1.971587,-0.450924 2.84375,-0.269531 0.872174,0.181393 1.902684,0.453245 2.121094,0.611328 l 0.21094,-0.257812 c -0.4614,-0.333956 -1.27768,-0.669854 -2.273441,-0.876953 -0.497879,-0.10355 -1.035451,-0.1712 -1.572265,-0.154297 z m 0.474609,1.386718 c -0.169339,0.0026 -0.334082,0.02831 -0.492187,0.08203 -0.735677,0.249967 -0.763362,0.646278 -0.925782,1.238281 -0.162419,0.592003 -0.255363,1.114606 -0.474609,1.537109 -0.103639,0.199719 -0.540797,0.714343 -0.832031,0.962891 -0.291235,0.248548 -1.036001,0.625337 -0.931641,0.785156 0.104359,0.15982 0.958123,0.01548 1.271484,-0.251953 0.313361,-0.267432 0.673003,-0.667499 0.917969,-0.99414 0.426836,-0.569153 0.426452,-1.292743 0.572266,-1.824219 0.145814,-0.531477 0.323534,-0.874541 0.597656,-0.996094 0.197172,-0.08743 0.987764,-0.05682 1.5957,0.199219 0.607932,0.256035 1.386722,0.582031 1.386722,0.582031 0.97076,0.09578 0.83798,-0.325994 0.008,-0.410156 -0.38621,-0.110387 -0.36641,-0.25975 -1.085932,-0.525391 -0.54808,-0.202346 -1.099409,-0.392711 -1.607425,-0.384766 z"
       id="path4268"
       inkscape:connector-curvature="0"
       sodipodi:nodetypes="cccscccssccccccssscsscssscsssssssccsscssssssssssccssc" />
  </g>
</svg>
