<?xml version="1.0" encoding="UTF-8" standalone="no"?>
<!-- Created with Inkscape (http://www.inkscape.org/) -->

<svg
   xmlns:dc="http://purl.org/dc/elements/1.1/"
   xmlns:cc="http://creativecommons.org/ns#"
   xmlns:rdf="http://www.w3.org/1999/02/22-rdf-syntax-ns#"
   xmlns:svg="http://www.w3.org/2000/svg"
   xmlns="http://www.w3.org/2000/svg"
   xmlns:xlink="http://www.w3.org/1999/xlink"
   xmlns:sodipodi="http://sodipodi.sourceforge.net/DTD/sodipodi-0.dtd"
   xmlns:inkscape="http://www.inkscape.org/namespaces/inkscape"
   width="32mm"
   height="31mm"
   viewBox="0 0 113.38582 109.84252"
   id="svg2"
   version="1.1"
   inkscape:version="0.91 r13725"
   sodipodi:docname="Huhn-coloured.svg">
  <title
     id="title4136">hen - coloured</title>
  <defs
     id="defs4">
    <linearGradient
       inkscape:collect="always"
       id="linearGradient6893">
      <stop
         style="stop-color:#ff4e56;stop-opacity:1"
         offset="0"
         id="stop6895" />
      <stop
         id="stop6901"
         offset="0.61812681"
         style="stop-color:#ff5d5b;stop-opacity:1" />
      <stop
         style="stop-color:#cf0502;stop-opacity:1"
         offset="1"
         id="stop6897" />
    </linearGradient>
    <pattern
       inkscape:collect="always"
       xlink:href="#Polkadots-med"
       id="pattern6566"
       patternTransform="matrix(1.5942681,0,0,1.1788429,0.36472384,-0.34251647)" />
    <pattern
       inkscape:stockid="Polka dots, medium"
       id="Polkadots-med"
       patternTransform="translate(0,0) scale(10,10)"
       height="10"
       width="10"
       patternUnits="userSpaceOnUse"
       inkscape:collect="always">
      <circle
         id="circle5909"
         r="0.15"
         cy="0.810"
         cx="2.567"
         style="fill:black;stroke:none" />
      <circle
         id="circle5911"
         r="0.15"
         cy="2.33"
         cx="3.048"
         style="fill:black;stroke:none" />
      <circle
         id="circle5913"
         r="0.15"
         cy="2.415"
         cx="4.418"
         style="fill:black;stroke:none" />
      <circle
         id="circle5915"
         r="0.15"
         cy="3.029"
         cx="1.844"
         style="fill:black;stroke:none" />
      <circle
         id="circle5917"
         r="0.15"
         cy="1.363"
         cx="6.08"
         style="fill:black;stroke:none" />
      <circle
         id="circle5919"
         r="0.15"
         cy="4.413"
         cx="5.819"
         style="fill:black;stroke:none" />
      <circle
         id="circle5921"
         r="0.15"
         cy="4.048"
         cx="4.305"
         style="fill:black;stroke:none" />
      <circle
         id="circle5923"
         r="0.15"
         cy="3.045"
         cx="5.541"
         style="fill:black;stroke:none" />
      <circle
         id="circle5925"
         r="0.15"
         cy="5.527"
         cx="4.785"
         style="fill:black;stroke:none" />
      <circle
         id="circle5927"
         r="0.15"
         cy="5.184"
         cx="2.667"
         style="fill:black;stroke:none" />
      <circle
         id="circle5929"
         r="0.15"
         cy="1.448"
         cx="7.965"
         style="fill:black;stroke:none" />
      <circle
         id="circle5931"
         r="0.15"
         cy="5.049"
         cx="7.047"
         style="fill:black;stroke:none" />
      <circle
         id="circle5933"
         r="0.15"
         cy="0.895"
         cx="4.340"
         style="fill:black;stroke:none" />
      <circle
         id="circle5935"
         r="0.15"
         cy="0.340"
         cx="7.125"
         style="fill:black;stroke:none" />
      <circle
         id="circle5937"
         r="0.15"
         cy="1.049"
         cx="9.553"
         style="fill:black;stroke:none" />
      <circle
         id="circle5939"
         r="0.15"
         cy="2.689"
         cx="7.006"
         style="fill:black;stroke:none" />
      <circle
         id="circle5941"
         r="0.15"
         cy="2.689"
         cx="8.909"
         style="fill:black;stroke:none" />
      <circle
         id="circle5943"
         r="0.15"
         cy="4.407"
         cx="9.315"
         style="fill:black;stroke:none" />
      <circle
         id="circle5945"
         r="0.15"
         cy="3.870"
         cx="7.820"
         style="fill:black;stroke:none" />
      <circle
         id="circle5947"
         r="0.15"
         cy="5.948"
         cx="8.270"
         style="fill:black;stroke:none" />
      <circle
         id="circle5949"
         r="0.15"
         cy="7.428"
         cx="7.973"
         style="fill:black;stroke:none" />
      <circle
         id="circle5951"
         r="0.15"
         cy="8.072"
         cx="9.342"
         style="fill:black;stroke:none" />
      <circle
         id="circle5953"
         r="0.15"
         cy="9.315"
         cx="8.206"
         style="fill:black;stroke:none" />
      <circle
         id="circle5955"
         r="0.15"
         cy="9.475"
         cx="9.682"
         style="fill:black;stroke:none" />
      <circle
         id="circle5957"
         r="0.15"
         cy="6.186"
         cx="9.688"
         style="fill:black;stroke:none" />
      <circle
         id="circle5959"
         r="0.15"
         cy="6.296"
         cx="3.379"
         style="fill:black;stroke:none" />
      <circle
         id="circle5961"
         r="0.15"
         cy="8.204"
         cx="2.871"
         style="fill:black;stroke:none" />
      <circle
         id="circle5963"
         r="0.15"
         cy="8.719"
         cx="4.59"
         style="fill:black;stroke:none" />
      <circle
         id="circle5965"
         r="0.15"
         cy="9.671"
         cx="3.181"
         style="fill:black;stroke:none" />
      <circle
         id="circle5967"
         r="0.15"
         cy="7.315"
         cx="5.734"
         style="fill:black;stroke:none" />
      <circle
         id="circle5969"
         r="0.15"
         cy="6.513"
         cx="6.707"
         style="fill:black;stroke:none" />
      <circle
         id="circle5971"
         r="0.15"
         cy="9.670"
         cx="5.730"
         style="fill:black;stroke:none" />
      <circle
         id="circle5973"
         r="0.15"
         cy="8.373"
         cx="6.535"
         style="fill:black;stroke:none" />
      <circle
         id="circle5975"
         r="0.15"
         cy="7.154"
         cx="4.37"
         style="fill:black;stroke:none" />
      <circle
         id="circle5977"
         r="0.15"
         cy="7.25"
         cx="0.622"
         style="fill:black;stroke:none" />
      <circle
         id="circle5979"
         r="0.15"
         cy="5.679"
         cx="0.831"
         style="fill:black;stroke:none" />
      <circle
         id="circle5981"
         r="0.15"
         cy="8.519"
         cx="1.257"
         style="fill:black;stroke:none" />
      <circle
         id="circle5983"
         r="0.15"
         cy="6.877"
         cx="1.989"
         style="fill:black;stroke:none" />
      <circle
         id="circle5985"
         r="0.15"
         cy="3.181"
         cx="0.374"
         style="fill:black;stroke:none" />
      <circle
         id="circle5987"
         r="0.15"
         cy="1.664"
         cx="1.166"
         style="fill:black;stroke:none" />
      <circle
         id="circle5989"
         r="0.15"
         cy="0.093"
         cx="1.151"
         style="fill:black;stroke:none" />
      <circle
         id="circle5991"
         r="0.15"
         cy="10.093"
         cx="1.151"
         style="fill:black;stroke:none" />
      <circle
         id="circle5993"
         r="0.15"
         cy="4.451"
         cx="1.302"
         style="fill:black;stroke:none" />
      <circle
         id="circle5995"
         r="0.15"
         cy="3.763"
         cx="3.047"
         style="fill:black;stroke:none" />
    </pattern>
    <pattern
       inkscape:collect="always"
       xlink:href="#Polkadots-large"
       id="pattern6397"
       patternTransform="matrix(1.05,0,0,0.99999999,0.36472398,0.65748363)" />
    <pattern
       inkscape:stockid="Polka dots, large"
       id="Polkadots-large"
       patternTransform="translate(0,0) scale(10,10)"
       height="10"
       width="10"
       patternUnits="userSpaceOnUse"
       inkscape:collect="always">
      <circle
         id="circle6087"
         r="0.45"
         cy="0.810"
         cx="2.567"
         style="fill:black;stroke:none" />
      <circle
         id="circle6089"
         r="0.45"
         cy="2.33"
         cx="3.048"
         style="fill:black;stroke:none" />
      <circle
         id="circle6091"
         r="0.45"
         cy="2.415"
         cx="4.418"
         style="fill:black;stroke:none" />
      <circle
         id="circle6093"
         r="0.45"
         cy="3.029"
         cx="1.844"
         style="fill:black;stroke:none" />
      <circle
         id="circle6095"
         r="0.45"
         cy="1.363"
         cx="6.08"
         style="fill:black;stroke:none" />
      <circle
         id="circle6097"
         r="0.45"
         cy="4.413"
         cx="5.819"
         style="fill:black;stroke:none" />
      <circle
         id="circle6099"
         r="0.45"
         cy="4.048"
         cx="4.305"
         style="fill:black;stroke:none" />
      <circle
         id="circle6101"
         r="0.45"
         cy="3.045"
         cx="5.541"
         style="fill:black;stroke:none" />
      <circle
         id="circle6103"
         r="0.45"
         cy="5.527"
         cx="4.785"
         style="fill:black;stroke:none" />
      <circle
         id="circle6105"
         r="0.45"
         cy="5.184"
         cx="2.667"
         style="fill:black;stroke:none" />
      <circle
         id="circle6107"
         r="0.45"
         cy="1.448"
         cx="7.965"
         style="fill:black;stroke:none" />
      <circle
         id="circle6109"
         r="0.45"
         cy="5.049"
         cx="7.047"
         style="fill:black;stroke:none" />
      <circle
         id="circle6111"
         r="0.45"
         cy="0.895"
         cx="4.340"
         style="fill:black;stroke:none" />
      <circle
         id="circle6113"
         r="0.45"
         cy="0.340"
         cx="7.125"
         style="fill:black;stroke:none" />
      <circle
         id="circle6115"
         r="0.45"
         cy="1.049"
         cx="9.553"
         style="fill:black;stroke:none" />
      <circle
         id="circle6117"
         r="0.45"
         cy="2.689"
         cx="7.006"
         style="fill:black;stroke:none" />
      <circle
         id="circle6119"
         r="0.45"
         cy="2.689"
         cx="8.909"
         style="fill:black;stroke:none" />
      <circle
         id="circle6121"
         r="0.45"
         cy="4.407"
         cx="9.315"
         style="fill:black;stroke:none" />
      <circle
         id="circle6123"
         r="0.45"
         cy="3.870"
         cx="7.820"
         style="fill:black;stroke:none" />
      <circle
         id="circle6125"
         r="0.45"
         cy="5.948"
         cx="8.270"
         style="fill:black;stroke:none" />
      <circle
         id="circle6127"
         r="0.45"
         cy="7.428"
         cx="7.973"
         style="fill:black;stroke:none" />
      <circle
         id="circle6129"
         r="0.45"
         cy="8.072"
         cx="9.342"
         style="fill:black;stroke:none" />
      <circle
         id="circle6131"
         r="0.45"
         cy="9.315"
         cx="8.206"
         style="fill:black;stroke:none" />
      <circle
         id="circle6133"
         r="0.45"
         cy="9.475"
         cx="9.682"
         style="fill:black;stroke:none" />
      <circle
         id="circle6135"
         r="0.45"
         cy="6.186"
         cx="9.688"
         style="fill:black;stroke:none" />
      <circle
         id="circle6137"
         r="0.45"
         cy="6.296"
         cx="3.379"
         style="fill:black;stroke:none" />
      <circle
         id="circle6139"
         r="0.45"
         cy="8.204"
         cx="2.871"
         style="fill:black;stroke:none" />
      <circle
         id="circle6141"
         r="0.45"
         cy="8.719"
         cx="4.59"
         style="fill:black;stroke:none" />
      <circle
         id="circle6143"
         r="0.45"
         cy="9.671"
         cx="3.181"
         style="fill:black;stroke:none" />
      <circle
         id="circle6145"
         r="0.45"
         cy="7.315"
         cx="5.734"
         style="fill:black;stroke:none" />
      <circle
         id="circle6147"
         r="0.45"
         cy="6.513"
         cx="6.707"
         style="fill:black;stroke:none" />
      <circle
         id="circle6149"
         r="0.45"
         cy="9.670"
         cx="5.730"
         style="fill:black;stroke:none" />
      <circle
         id="circle6151"
         r="0.45"
         cy="8.373"
         cx="6.535"
         style="fill:black;stroke:none" />
      <circle
         id="circle6153"
         r="0.45"
         cy="7.154"
         cx="4.37"
         style="fill:black;stroke:none" />
      <circle
         id="circle6155"
         r="0.45"
         cy="7.25"
         cx="0.622"
         style="fill:black;stroke:none" />
      <circle
         id="circle6157"
         r="0.45"
         cy="5.679"
         cx="0.831"
         style="fill:black;stroke:none" />
      <circle
         id="circle6159"
         r="0.45"
         cy="8.519"
         cx="1.257"
         style="fill:black;stroke:none" />
      <circle
         id="circle6161"
         r="0.45"
         cy="6.877"
         cx="1.989"
         style="fill:black;stroke:none" />
      <circle
         id="circle6163"
         r="0.45"
         cy="3.181"
         cx="0.374"
         style="fill:black;stroke:none" />
      <circle
         id="circle6165"
         r="0.45"
         cy="1.664"
         cx="1.166"
         style="fill:black;stroke:none" />
      <circle
         id="circle6167"
         r="0.45"
         cy="0.093"
         cx="1.151"
         style="fill:black;stroke:none" />
      <circle
         id="circle6169"
         r="0.45"
         cy="10.093"
         cx="1.151"
         style="fill:black;stroke:none" />
      <circle
         id="circle6171"
         r="0.45"
         cy="4.451"
         cx="1.302"
         style="fill:black;stroke:none" />
      <circle
         id="circle6173"
         r="0.45"
         cy="3.763"
         cx="3.047"
         style="fill:black;stroke:none" />
    </pattern>
    <radialGradient
       inkscape:collect="always"
       xlink:href="#linearGradient6893"
       id="radialGradient6899"
       cx="94.714912"
       cy="17.103704"
       fx="94.714912"
       fy="17.103704"
       r="7.6845013"
       gradientTransform="matrix(0.9968416,0.07941549,-0.08133254,1.0209048,1.6902351,-6.982751)"
       gradientUnits="userSpaceOnUse" />
  </defs>
  <sodipodi:namedview
     id="base"
     pagecolor="#ffffff"
     bordercolor="#666666"
     borderopacity="1.0"
     inkscape:pageopacity="0.0"
     inkscape:pageshadow="2"
     inkscape:zoom="8"
     inkscape:cx="56.715283"
     inkscape:cy="66.954256"
     inkscape:document-units="mm"
     inkscape:current-layer="layer2"
     showgrid="false"
     borderlayer="true"
     inkscape:window-width="2560"
     inkscape:window-height="1331"
     inkscape:window-x="0"
     inkscape:window-y="0"
     inkscape:window-maximized="1"
     inkscape:snap-global="false"
     fit-margin-top="1"
     fit-margin-right="1"
     fit-margin-bottom="1"
     fit-margin-left="1" />
  <metadata
     id="metadata7">
    <rdf:RDF>
      <cc:Work
         rdf:about="">
        <dc:format>image/svg+xml</dc:format>
        <dc:type
           rdf:resource="http://purl.org/dc/dcmitype/StillImage" />
        <dc:title>hen - coloured</dc:title>
        <cc:license
           rdf:resource="http://creativecommons.org/publicdomain/zero/1.0/" />
        <dc:date>2016-05-06</dc:date>
        <dc:creator>
          <cc:Agent>
            <dc:title>Frank Tremmel</dc:title>
          </cc:Agent>
        </dc:creator>
        <dc:subject>
          <rdf:Bag>
            <rdf:li>hen</rdf:li>
            <rdf:li>chicken</rdf:li>
            <rdf:li>animal</rdf:li>
            <rdf:li>farm</rdf:li>
            <rdf:li>line art</rdf:li>
            <rdf:li>outline</rdf:li>
            <rdf:li>school</rdf:li>
            <rdf:li>teaching</rdf:li>
            <rdf:li>education</rdf:li>
            <rdf:li>Huhn</rdf:li>
            <rdf:li>Hühner</rdf:li>
            <rdf:li>Vogel</rdf:li>
            <rdf:li>Bauernhof</rdf:li>
            <rdf:li>Schule</rdf:li>
            <rdf:li>Unterricht</rdf:li>
            <rdf:li>Tier</rdf:li>
            <rdf:li></rdf:li>
          </rdf:Bag>
        </dc:subject>
        <dc:description>coloured line art hen</dc:description>
      </cc:Work>
      <cc:License
         rdf:about="http://creativecommons.org/publicdomain/zero/1.0/">
        <cc:permits
           rdf:resource="http://creativecommons.org/ns#Reproduction" />
        <cc:permits
           rdf:resource="http://creativecommons.org/ns#Distribution" />
        <cc:permits
           rdf:resource="http://creativecommons.org/ns#DerivativeWorks" />
      </cc:License>
    </rdf:RDF>
  </metadata>
  <g
     inkscape:groupmode="layer"
     id="layer2"
     inkscape:label="Ebene 2"
     transform="translate(2.9100876,1.4671852)">
    <path
       style="fill:#9c862b;fill-rule:evenodd;stroke:#66ff00;stroke-width:0.29055119;stroke-linecap:butt;stroke-linejoin:miter;stroke-miterlimit:4;stroke-dasharray:none;stroke-opacity:1;fill-opacity:1"
       d="m 56.22616,79.837937 6.010408,0.883883 c 3.094168,3.609191 5.963464,7.218382 8.352698,10.827573 0.522538,-0.795495 0.762311,-1.59099 3.093593,-2.386485 1.491688,-0.321398 3.030949,0.308674 4.640388,2.342291 l -2.828427,-0.08839 -2.253903,1.414214 8.57367,1.635184 c 1.996551,1.708842 2.04297,3.417683 2.342291,5.126525 l -4.286835,-2.96101 c -2.380372,0.484735 -5.142901,-1.571397 -7.51301,-1.149049 0.783967,1.414214 1.758899,2.828427 1.414214,4.242641 l -0.574524,1.281626 c -1.236179,-2.437591 -2.789954,-3.128416 -4.242641,-4.375218 l -3.226175,-3.447146 -3.579728,1.149049 c -0.7754,0.553548 -0.890059,1.54759 -0.972272,2.563262 -0.668227,0.06014 -1.003987,-0.877126 -1.325825,-1.856155 -0.533531,-0.914147 0.607542,-1.409642 1.414214,-1.988738 0.805185,-1.113126 2.028726,-1.947348 4.24264,-2.121321 L 62.148179,87.61611 Z"
       id="path4901"
       inkscape:connector-curvature="0"
       sodipodi:nodetypes="cccccccccccccccccccccc" />
    <path
       style="color:#000000;font-style:normal;font-variant:normal;font-weight:normal;font-stretch:normal;font-size:medium;line-height:normal;font-family:sans-serif;text-indent:0;text-align:start;text-decoration:none;text-decoration-line:none;text-decoration-style:solid;text-decoration-color:#000000;letter-spacing:normal;word-spacing:normal;text-transform:none;direction:ltr;block-progression:tb;writing-mode:lr-tb;baseline-shift:baseline;text-anchor:start;white-space:normal;clip-rule:nonzero;display:inline;overflow:visible;visibility:visible;opacity:1;isolation:auto;mix-blend-mode:normal;color-interpolation:sRGB;color-interpolation-filters:linearRGB;solid-color:#000000;solid-opacity:1;fill:#2c2a1c;fill-opacity:1;fill-rule:evenodd;stroke:none;stroke-width:1.77165353;stroke-linecap:butt;stroke-linejoin:miter;stroke-miterlimit:4;stroke-dasharray:none;stroke-dashoffset:0;stroke-opacity:1;color-rendering:auto;image-rendering:auto;shape-rendering:auto;text-rendering:auto;enable-background:accumulate"
       d="M 57.61741,80.434884 55.632039,80.27193 c 1.526212,1.99374 1.762567,2.617006 4.578637,5.98122 0.121197,0.144788 4.028203,3.588004 4.399453,4.296105 -1.971612,0.421772 -3.30492,0.896583 -3.908541,2.4672 -1.323956,0.417235 -1.438181,1.643071 -1.327101,2.35392 0.114174,0.730647 0.461702,1.280828 0.988281,1.595703 l 1.27632,0.763193 -0.08882,-0.991709 c -0.190295,-2.124713 1.315967,-2.33597 2.226158,-2.191265 0.49487,0.07868 1.321033,-0.451013 1.958036,-0.546331 1.085158,1.087018 1.946529,3.010948 3.393761,3.834275 1.447231,0.823326 2.638068,1.673822 3.381029,3.549799 l 0.390625,0.98633 0.900391,-0.55859 c 1.417195,-0.87921 -9.58e-4,-4.753806 -0.657681,-5.852516 1.060506,0.168098 1.551506,0.429352 1.958464,0.534155 1.294174,0.333274 2.714573,0.74607 4.00475,0.943194 1.290176,0.197123 2.474543,0.758789 3.717906,1.922038 0,0 1.272397,1.326539 1.598474,1.188999 0.326076,-0.13753 0.0036,-1.995302 0.0036,-1.995302 -0.04749,-1.138186 -0.561186,-2.135008 -1.146954,-3.0394 -0.585767,-0.904393 -1.49636,-1.657895 -2.113541,-1.763281 l -6.684524,-1.141414 c 0.09924,-0.05052 0.459725,-0.691646 1.708683,-0.802243 0.974395,-0.08628 2.65911,0.51859 3.125261,0.416811 -0.209478,-0.566275 -1.655236,-2.058111 -2.406839,-2.706493 -1.049042,-0.904974 -2.269994,-1.060208 -3.502282,-0.884352 -1.121224,0.160006 -2.298363,1.360052 -2.952645,2.196974 0,0 -2.500754,-3.82316 -3.869423,-5.649978 -1.314647,-1.754712 -4.164062,-5.091796 -4.164062,-5.091796 l -1.371094,1.123046 c 0,0 3.191955,2.915536 4.592191,4.606963 1.820061,2.198555 5.077731,7.055147 5.077731,7.055147 0.09889,-0.398083 0.215431,-0.800087 0.645677,-1.271803 0.80281,-0.880193 1.31377,-1.549259 2.021819,-1.696845 0.708049,-0.147587 1.761484,-0.123053 1.958639,-0.0931 0.432032,0.06564 1.716526,0.688119 2.033231,1.209162 -0.946288,-0.428003 -2.131664,-0.08452 -2.642024,0.147771 -1.306221,0.594527 -1.729614,1.018621 -2.277557,1.59212 0.365975,0.575992 3.103943,0.818077 3.583606,0.922755 l 4.8558,1.059692 c 0.662711,0.144625 1.777331,1.636272 1.912231,2.887348 C 82.134407,97.298193 80.231726,96.0796 79.217211,95.963754 78.202696,95.847909 77.054893,95.792968 75.739553,95.454244 74.424213,95.115519 73.767129,94.55814 72.4234,94.811872 l -1.825526,-1.34465 -0.257707,0.229651 c 1.151072,1.124325 1.767463,2.354978 2.523851,3.52787 0.501609,0.77782 0.57322,1.757041 0.475351,2.231604 -0.901912,-1.40611 -1.967705,-2.427121 -3.416535,-3.319723 -1.448829,-0.892602 -2.526402,-2.289086 -3.843224,-3.533831 -1.004038,0.270777 -2.082812,0.278755 -2.851563,0.53125 -0.570485,0.187375 -2.630836,1.431103 -2.26999,2.968908 -0.439088,-0.07497 -1.409387,-1.994613 0.560558,-2.67008 0.379776,-0.584644 1.145004,-1.462194 2.528118,-1.825629 1.383115,-0.363436 1.837983,-0.2153 1.925463,-0.680228 0.08748,-0.464928 -1.325726,-1.504655 -1.802226,-1.921048 -0.467221,-0.408284 -2.661711,-3.16376 -2.727032,-3.250149 -1.894797,-2.505941 -2.550324,-3.547291 -3.825486,-5.320936 z"
       id="path4889"
       inkscape:connector-curvature="0"
       sodipodi:nodetypes="ccsccsscsscsscscssszssscscsscsccscssscscsscsscccscscsccssssc" />
    <path
       style="fill:#ba9509;fill-rule:evenodd;stroke:#aa4400;stroke-width:0.29055119;stroke-linecap:butt;stroke-linejoin:miter;stroke-miterlimit:4;stroke-dasharray:none;stroke-opacity:1;fill-opacity:1"
       d="m 37.620413,83.68283 2.563262,10.341437 -3.623923,1.900349 c -0.987446,1.502417 -1.779276,3.086341 -1.370019,5.170714 1.785004,-1.456199 3.727573,-3.700229 5.303301,-4.110054 l 5.126524,3.535534 c 1.001816,1.00906 1.979589,2.03014 2.519068,3.27037 0.42503,-0.62935 0.864221,-1.23747 1.06066,-2.20971 l -1.900349,-2.784233 -1.414214,-1.325825 1.767767,0.574524 3.579728,1.811958 4.684583,0.662916 2.386485,1.19324 c 0.241744,-1.09598 -0.682514,-2.483454 -1.325825,-3.800696 -2.136052,-0.668997 -4.272103,-0.794483 -6.408155,-1.149049 -1.262766,-0.17805 -2.598829,0.450159 -3.756505,-0.883883 l 3.402951,-1.016466 3.049398,0.883883 C 52.656586,94.73328 52.346307,93.594436 50.392529,93.140383 l -4.861359,0.795495 c -0.368613,-0.993129 -0.808585,-1.945481 -1.988738,-2.474873 0,0 -1.325825,-7.778175 -1.723573,-7.733981 -0.397747,0.04419 -4.198446,-0.04419 -4.198446,-0.04419 z"
       id="path4899"
       inkscape:connector-curvature="0"
       sodipodi:nodetypes="ccccccccccccccccccccccsc" />
    <path
       style="fill:#ffffff;fill-rule:evenodd;stroke:#ffcc00;stroke-width:0.29055119;stroke-linecap:butt;stroke-linejoin:miter;stroke-miterlimit:4;stroke-dasharray:none;stroke-opacity:1"
       d="m 96.079057,13.395303 c -3.040337,-1.305726 -6.080675,-1.036267 -9.121012,-0.675631 -3.9037,1.426296 -6.812112,3.474647 -9.909249,5.405045 L 70.74291,26.570099 54.978197,29.610437 C 50.098643,31.633838 45.219088,32.034415 40.339534,31.299513 36.349703,31.091596 33.519318,29.080098 30.430285,27.47094 28.084655,24.505278 26.198028,20.955431 22.773139,19.363373 21.365328,16.758639 19.782364,14.294028 16.805068,12.944882 14.055605,10.57695 11.357154,8.4300714 8.9227113,7.4272322 7.4530979,7.4606096 6.0605386,7.5748938 6.6706093,9.7919395 L 8.3596858,13.395303 C 6.9237589,13.221462 5.5056129,12.67422 3.9680869,14.633959 c -1.3706222,0.36083 -2.5555141,0.860957 -2.2521019,2.477312 0.7222813,1.163586 1.9634655,2.327172 2.0268917,3.490758 -0.5672171,1.802939 0.1244371,3.228217 0.5630255,4.729414 -0.2769904,1.178467 -0.1977447,1.840962 1.2056748,3.754608 l 1.0464272,3.339513 c -2.5355576,1.637304 -1.6765113,3.074926 -0.6756306,4.504204 -1.2387948,1.426319 -2.2876181,2.869158 -1.126051,4.504204 l 2.7025224,2.477312 c -0.2573615,5.179115 1.5914551,5.487693 2.927733,6.981517 0.0046,2.254631 1.236568,4.00386 3.040337,5.517649 -0.321944,0.911053 -0.744508,1.771797 -0.456078,2.988037 1.410922,0.548813 2.85236,1.219691 4.059442,0.953142 -0.215544,1.959089 -1.013419,3.982881 0.563025,5.74286 l 2.702522,0.45042 c 0.826203,1.873372 1.052247,4.096836 3.040338,5.29244 l 3.941178,-0.450421 c 1.223846,1.498423 2.513991,2.842149 4.053784,3.603364 0.859154,2.73851 2.420453,5.070515 5.29244,6.6437 l 2.026891,1.689077 3.941179,0.337815 2.364707,-3.603363 6.643701,-4.842019 c 1.221947,2.081136 2.89676,3.709405 5.179834,4.729414 l 5.29244,0.67563 c 1.308067,-1.485463 1.97923,-3.289378 1.801681,-5.517649 l 0.225211,-5.405045 5.96807,-1.689077 c 3.507982,-1.472492 6.98136,-3.02363 9.346223,-7.094121 L 87.52107,48.077673 92.588299,33.43901 c 0.616855,-2.909729 1.54273,-6.511429 0.542534,-8.612632 l -1.994944,0.630625 C 89.742278,25.3173 90.48259,24.280294 90.379462,23.147912 89.184192,22.186171 88.393707,21.05577 88.46849,19.56484 c 0.58017,-1.520329 1.192134,-2.977072 2.189656,-3.662697 1.278945,-1.439071 3.437667,-1.872682 5.420911,-2.50684 z"
       id="path4893"
       inkscape:connector-curvature="0"
       sodipodi:nodetypes="ccccccccccccccccccccccccccccccccccccccccccccccccc" />
    <path
       style="fill:#a0381e;fill-opacity:1;fill-rule:evenodd;stroke:#ffcc00;stroke-width:0.29055119;stroke-linecap:butt;stroke-linejoin:miter;stroke-miterlimit:4;stroke-dasharray:none;stroke-opacity:1"
       d="m 96.28482,13.223472 c -3.04034,-1.305726 -6.08067,-1.036267 -9.12101,-0.675631 -3.9037,1.426296 -6.81211,3.474647 -9.90925,5.405046 l -6.30589,8.445382 -15.76471,3.040338 C 50.30441,31.462008 45.42485,31.862585 40.5453,31.127683 36.55547,30.919766 33.72508,28.908268 30.63605,27.29911 28.29042,24.333448 26.40379,20.783601 22.9789,19.191543 21.57109,16.586808 19.98813,14.122197 17.01083,12.773051 14.26137,10.405119 11.56292,8.2582409 9.1284798,7.2554019 c -1.46962,0.03338 -2.86218,0.147662 -2.25211,2.364707 l 1.68908,3.6033631 c -1.43593,-0.173841 -2.85407,-0.721083 -4.3916,1.238656 -1.37062,0.36083 -2.55551,0.860957 -2.2521,2.477312 0.72228,1.163587 1.96346,2.327173 2.02689,3.490759 -0.56722,1.802939 0.12444,3.228217 0.56303,4.729414 -0.27699,1.178467 -0.19775,1.840962 1.20567,3.754608 l 1.04643,3.339513 c -2.53556,1.637304 -1.67651,3.074926 -0.67563,4.504204 -1.2388,1.426315 -2.28762,2.869155 -1.12605,4.504205 l 2.70252,2.47731 c -0.25736,5.17912 1.59145,5.48769 2.9277302,6.98152 0.005,2.25463 1.23657,4.00386 3.04034,5.51765 -0.32195,0.91105 -0.74451,1.77179 -0.45608,2.98803 1.41092,0.54882 2.85236,1.21969 4.05944,0.95315 -0.21554,1.95908 -1.01342,3.98288 0.56303,5.74286 l 2.70252,0.45042 c 0.8262,1.873367 1.05225,4.096827 3.04034,5.292437 l 3.94118,-0.45043 c 1.22384,1.49843 2.51399,2.84215 4.05378,3.60337 0.85915,2.73851 2.42045,5.07051 5.29244,6.6437 l 2.02689,1.68908 3.94118,0.33781 2.36471,-3.60336 6.6437,-4.84202 c 1.22194,2.08113 2.89676,3.7094 5.17983,4.72941 l 5.29244,0.67563 c 1.30807,-1.48546 1.97923,-3.28938 1.80168,-5.51765 l 0.22521,-5.40504 5.96807,-1.68908 c 3.50799,-1.472487 6.98136,-3.023627 9.34623,-7.094117 l 8.10756,-12.83698 5.06723,-14.638663 c 0.61686,-2.909729 1.54273,-6.511429 0.54254,-8.612632 l -1.99495,0.630625 c -1.39361,-0.139703 -0.6533,-1.176709 -0.75642,-2.309091 -1.19527,-0.961741 -1.98576,-2.092142 -1.91098,-3.583072 0.58017,-1.520329 1.19214,-2.977073 2.18966,-3.662698 1.27894,-1.439071 3.43767,-1.872682 5.42091,-2.50684 z"
       id="path4893-5-5"
       inkscape:connector-curvature="0"
       sodipodi:nodetypes="ccccccccccccccccccccccccccccccccccccccccccccccccc" />
    <path
       style="fill:url(#pattern6397);fill-opacity:1;fill-rule:evenodd;stroke:#ffcc00;stroke-width:0.29055119;stroke-linecap:butt;stroke-linejoin:miter;stroke-miterlimit:4;stroke-dasharray:none;stroke-opacity:1;opacity:0.299"
       d="m 96.184634,13.554834 c -3.04034,-1.305726 -6.08067,-1.036267 -9.12101,-0.675631 -3.9037,1.426296 -6.81211,3.474647 -9.90925,5.405045 l -6.30589,8.445382 -15.76471,3.040338 c -4.87955,2.023401 -9.75911,2.423978 -14.63866,1.689076 -3.98983,-0.207917 -6.82022,-2.219415 -9.90925,-3.828573 -2.34563,-2.965662 -4.23226,-6.515509 -7.65715,-8.107567 -1.40781,-2.604734 -2.99077,-5.069345 -5.96807,-6.418491 -2.74946,-2.367932 -5.44791,-4.5148106 -7.8823503,-5.5176496 -1.46962,0.03338 -2.86218,0.147662 -2.25211,2.3647071 l 1.68908,3.6033635 c -1.43593,-0.173841 -2.85407,-0.721083 -4.3916,1.238656 -1.37062,0.36083 -2.55551,0.860957 -2.2521,2.477312 0.72228,1.163586 1.96346,2.327172 2.02689,3.490758 -0.56722,1.802939 0.12444,3.228217 0.56303,4.729414 -0.27699,1.178467 -0.19775,1.840962 1.20567,3.754608 l 1.04643,3.339513 c -2.53556,1.637304 -1.67651,3.074926 -0.67563,4.504204 -1.2388,1.426315 -2.28762,2.869155 -1.12605,4.504205 l 2.70252,2.47731 c -0.25736,5.17912 1.59145,5.48769 2.9277303,6.98152 0.005,2.25463 1.23657,4.00386 3.04034,5.51765 -0.32195,0.91105 -0.74451,1.77179 -0.45608,2.98803 1.41092,0.54882 2.85236,1.21969 4.05944,0.95315 -0.21554,1.95908 -1.01342,3.98288 0.56303,5.74286 l 2.70252,0.45042 c 0.8262,1.87337 1.05225,4.09683 3.04034,5.29244 l 3.94118,-0.45043 c 1.22384,1.49843 2.51399,2.84215 4.05378,3.60337 0.85915,2.73851 2.42045,5.07051 5.29244,6.6437 l 2.02689,1.68908 3.94118,0.33781 2.36471,-3.60336 6.6437,-4.84202 c 1.22194,2.08113 2.89676,3.7094 5.17983,4.72941 l 5.29244,0.67563 c 1.30807,-1.48546 1.97923,-3.28938 1.80168,-5.51765 l 0.22521,-5.40504 5.96807,-1.68908 c 3.50799,-1.47249 6.98136,-3.02363 9.34623,-7.09412 l 8.10756,-12.83698 5.06723,-14.638663 c 0.61686,-2.909729 1.54273,-6.511429 0.54254,-8.612632 l -1.99495,0.630625 c -1.39361,-0.139703 -0.6533,-1.176709 -0.75642,-2.309091 -1.19527,-0.961741 -1.98576,-2.092142 -1.91098,-3.583072 0.58017,-1.520329 1.19214,-2.977072 2.18966,-3.662697 1.27894,-1.439071 3.43767,-1.872682 5.42091,-2.50684 z"
       id="path4893-5"
       inkscape:connector-curvature="0"
       sodipodi:nodetypes="ccccccccccccccccccccccccccccccccccccccccccccccccc" />
    <path
       style="fill:#ffffff;fill-rule:evenodd;stroke:#ff0000;stroke-width:0.29055119;stroke-linecap:butt;stroke-linejoin:miter;stroke-miterlimit:4;stroke-dasharray:none;stroke-opacity:1"
       d="M 92.465382,12.618598 89.548567,9.8785585 c -0.283017,-1.9792071 0.384349,-2.374442 0.751301,-3.2703684 1.154559,-1.276457 2.396373,-0.3715144 3.668116,1.281631 l 1.060661,-4.3752232 c 0.705912,0.7230327 1.581928,1.2759613 1.502601,2.784233 -0.200555,1.392851 -0.789739,3.2391011 -0.353553,3.8890881 0.648181,-0.3752315 1.296363,-1.7654905 1.944544,-3.0493988 l 0.928077,-2.2539029 c 0.280089,0.7658948 0.995626,1.220755 0.53033,2.5190679 -0.410873,2.0902791 -1.103303,4.7155188 -0.397747,4.6845828 2.305593,-1.291557 1.708633,-3.4368076 2.209703,-5.259107 1.3433,0.7670625 1.90949,2.0780957 2.07713,3.668117 l -1.90035,3.535534 c 0.78142,1.192059 1.309,2.403643 0.57452,3.71231 l -1.28163,-0.22097 -0.7513,1.370019 -3.049393,0.397748 0.751301,1.458407 2.298092,0.883884 c 0.43376,1.445315 0.20697,2.51317 -0.176772,3.491339 -0.824301,1.165969 -1.578789,2.56465 -2.740039,2.607457 -1.396792,0.170051 -2.56594,-0.229008 -3.49134,-1.237437 L 92.86313,24.727802 c -0.73657,0.963701 -1.473139,0.81357 -2.209709,0.751301 l -0.707106,-3.049398 c -0.554485,-0.69357 -1.30981,-0.784618 -1.546797,-2.43068 l 1.458408,-3.402951 2.077126,-1.944544 c 1.408619,-0.706361 3.04574,-0.841471 4.684583,-0.972272 z"
       id="path4895"
       inkscape:connector-curvature="0"
       sodipodi:nodetypes="ccccccccccccccccccccccccccccccc" />
    <path
       style="fill:url(#radialGradient6899);fill-opacity:1;fill-rule:evenodd;stroke:#ff0000;stroke-width:0.29055119;stroke-linecap:butt;stroke-linejoin:miter;stroke-miterlimit:4;stroke-dasharray:none;stroke-opacity:1"
       d="M 92.49589,12.673436 89.57907,9.933397 C 89.29605,7.95419 89.96342,7.558955 90.33037,6.663029 91.48493,5.386572 92.72674,6.291515 93.99849,7.94466 l 1.06066,-4.375223 c 0.70591,0.723033 1.58193,1.275961 1.5026,2.784233 -0.20056,1.392851 -0.78974,3.239101 -0.35355,3.889087 0.64818,-0.375231 1.29636,-1.76549 1.94454,-3.049398 l 0.92808,-2.253903 c 0.28009,0.765895 0.99562,1.220755 0.53033,2.519068 -0.41088,2.090279 -1.10331,4.715518 -0.39775,4.684582 2.3056,-1.291557 1.70864,-3.436807 2.20971,-5.259106 1.3433,0.767062 1.90949,2.078096 2.07713,3.668116 l -1.90035,3.535535 c 0.78142,1.192059 1.309,2.403643 0.57452,3.71231 l -1.28163,-0.22097 -0.7513,1.370019 -3.0494,0.397748 0.7513,1.458407 2.2981,0.883884 c 0.43376,1.445315 0.20697,2.51317 -0.17678,3.491339 -0.8243,1.165969 -1.57879,2.56465 -2.74004,2.607457 -1.39679,0.170051 -2.56594,-0.229008 -3.49134,-1.237437 l -0.83969,-1.767767 c -0.73657,0.963701 -1.47314,0.81357 -2.20971,0.751301 l -0.7071,-3.049398 c -0.55449,-0.69357 -1.30981,-0.784618 -1.5468,-2.43068 l 1.45841,-3.402951 2.07713,-1.944544 c 1.40861,-0.706361 3.04574,-0.841471 4.68458,-0.972272 z"
       id="path4895-1-4"
       inkscape:connector-curvature="0"
       sodipodi:nodetypes="ccccccccccccccccccccccccccccccc" />
    <path
       style="fill:url(#pattern6566);fill-opacity:1;fill-rule:evenodd;stroke:#ff0000;stroke-width:0.29055119;stroke-linecap:butt;stroke-linejoin:miter;stroke-miterlimit:4;stroke-dasharray:none;stroke-opacity:1;opacity:0.31"
       d="m 92.395704,12.754798 -2.91682,-2.740039 c -0.28302,-1.9792075 0.38435,-2.3744425 0.7513,-3.2703685 1.15456,-1.276457 2.39637,-0.371514 3.66812,1.281631 l 1.06066,-4.375223 c 0.70591,0.723033 1.58193,1.275961 1.5026,2.784233 -0.20056,1.392851 -0.78974,3.239101 -0.35355,3.8890875 0.64818,-0.3752315 1.29636,-1.7654905 1.94454,-3.0493985 l 0.92808,-2.253903 c 0.28009,0.765895 0.99562,1.220755 0.53033,2.519068 -0.41088,2.090279 -1.10331,4.7155185 -0.39775,4.6845825 2.305596,-1.291557 1.708636,-3.4368075 2.209706,-5.2591065 1.3433,0.767062 1.90949,2.078096 2.07713,3.6681165 l -1.90035,3.535535 c 0.78142,1.192059 1.309,2.403643 0.57452,3.71231 l -1.28163,-0.22097 -0.7513,1.370019 -3.049396,0.397748 0.7513,1.458407 2.298096,0.883884 c 0.43376,1.445315 0.20697,2.51317 -0.176776,3.491339 -0.8243,1.165969 -1.57879,2.56465 -2.74004,2.607457 -1.39679,0.170051 -2.56594,-0.229008 -3.49134,-1.237437 l -0.83969,-1.767767 c -0.73657,0.963701 -1.47314,0.81357 -2.20971,0.751301 l -0.7071,-3.049398 c -0.55449,-0.69357 -1.30981,-0.784618 -1.5468,-2.43068 l 1.45841,-3.402951 2.07713,-1.944544 c 1.40861,-0.706361 3.04574,-0.841471 4.68458,-0.972272 z"
       id="path4895-1"
       inkscape:connector-curvature="0"
       sodipodi:nodetypes="ccccccccccccccccccccccccccccccc" />
    <path
       style="color:#000000;font-style:normal;font-variant:normal;font-weight:normal;font-stretch:normal;font-size:medium;line-height:normal;font-family:sans-serif;text-indent:0;text-align:start;text-decoration:none;text-decoration-line:none;text-decoration-style:solid;text-decoration-color:#000000;letter-spacing:normal;word-spacing:normal;text-transform:none;direction:ltr;block-progression:tb;writing-mode:lr-tb;baseline-shift:baseline;text-anchor:start;white-space:normal;clip-rule:nonzero;display:inline;overflow:visible;visibility:visible;opacity:1;isolation:auto;mix-blend-mode:normal;color-interpolation:sRGB;color-interpolation-filters:linearRGB;solid-color:#000000;solid-opacity:1;fill:#372c00;fill-opacity:1;fill-rule:evenodd;stroke:none;stroke-width:1.77165353;stroke-linecap:butt;stroke-linejoin:miter;stroke-miterlimit:4;stroke-dasharray:none;stroke-dashoffset:0;stroke-opacity:1;color-rendering:auto;image-rendering:auto;shape-rendering:auto;text-rendering:auto;enable-background:accumulate"
       d="m 42.464333,83.659437 -1.294189,0.425988 c 0.842066,2.245821 1.399847,3.750208 1.788282,6.171146 0.388435,2.420939 0.882309,2.702244 1.091843,2.902866 0.528646,0.766377 0.972111,0.423909 1.138728,1.401687 1.550251,-0.186548 3.142067,-0.554448 4.661277,-0.833249 0.702436,-0.128908 2.063237,0.03524 2.619032,1.470812 -0.02036,0.01712 -2.095758,-0.965286 -3.113277,-0.770022 -1.110078,0.213026 -1.422506,0.853999 -2.207491,0.937357 -0.97372,0.103398 -2.295442,-0.378234 -2.295442,-0.378234 l 2.099704,1.569693 c 1.871703,1.399244 5.448336,0.169823 8.965858,1.498591 0.505508,0.184452 1.434097,2.128678 1.629225,2.386338 -0.538184,-0.21161 -2.159183,-1.156125 -3.040576,-1.107423 -0.881394,0.0487 -2.764841,0.03865 -4.33331,-0.428974 -1.568469,-0.467628 -2.032144,-1.158586 -3.077544,-1.434871 l -2.462572,-0.485595 c 0.672959,0.430744 1.94976,1.128914 2.804824,2.456849 0.700375,1.087694 0.780704,2.520214 0.763874,3.140354 -0.39802,-0.25485 -2.484845,-3.31539 -3.323022,-3.580976 C 44.041381,98.736187 43.884488,98.427181 43.51512,97.5715 43.01091,97.50473 42.54404,97.259395 42.110823,97.065641 41.989116,96.951153 41.854365,96.706713 41.538557,96.26486 L 41.00926,95.522672 c -0.397728,0.406292 -1.054302,0.717613 -1.375,0.88086 -0.320541,0.11478 -0.88285,0.345824 -1.765625,0.822265 -0.606048,0.241734 -1.728374,2.323842 -2.020658,2.776153 0.02784,-0.244856 0.408618,-2.602276 0.583705,-2.827929 0.825888,-1.064414 1.361835,-1.659326 2.196292,-1.913646 0.834456,-0.254321 1.747079,-0.279473 2.025762,-0.945004 0.278684,-0.665531 0.670758,-1.134721 -0.136381,-3.136451 -0.807138,-2.00173 -1.470933,-4.721687 -1.951453,-7.39258 l -1.49078,-0.56019 c 0.490409,2.725858 0.93535,6.453626 2.256405,9.583628 0.24707,0.736112 0.188583,1.049622 -0.781953,1.391332 -0.970536,0.341709 -2.50868,0.953247 -3.321407,2.867954 -0.812727,1.914707 -0.674434,3.470036 -0.534431,4.198586 0.140002,0.72855 0.252698,0.89477 0.465917,1.01869 0.213219,0.12392 0.282887,-0.44151 0.978989,-1.086 0.696102,-0.64448 1.258286,-0.73464 1.618667,-1.330016 0.360381,-0.595372 0.856987,-1.03533 1.315235,-1.290588 0.510487,-0.248129 0.992856,-0.457842 1.481637,-0.676195 0.108219,0.152224 0.17067,0.292148 0.341797,0.453125 0.323783,0.304579 0.851385,0.49235 1.429688,0.671875 0.563331,0.993579 1.442179,1.715789 2.707235,1.962769 1.265056,0.24697 1.643077,1.33232 2.413854,2.54117 l 0.609375,0.95703 0.779297,-0.82226 c 0.828689,-0.87347 0.976158,-1.99026 0.708985,-2.78907 -0.178672,-0.5342 -2.1334,-2.301024 -2.380483,-2.626774 0.359871,0.11684 2.239091,1.676858 2.614857,1.788884 1.650112,0.49197 3.383223,0.922 4.551685,0.85315 1.168462,-0.0689 1.985547,0.38938 3.145581,1.0923 l 1.576172,0.95508 -0.240234,-1.82812 c -0.09113,-0.69347 -0.189182,-1.476704 -0.582032,-2.240232 -0.392849,-0.763528 -1.124499,-1.451528 -2.896627,-1.634973 -1.51495,-0.403883 -6.333899,-0.901505 -7.151436,-1.164241 -0.549273,-0.492676 2.774669,-0.572659 2.866424,-0.581657 0.09175,-0.009 1.798843,0.409365 2.711782,1.177659 0.174259,-1.505465 -0.663853,-2.701951 -1.66686,-3.456955 -0.764729,-0.575643 -1.889187,-0.751811 -2.496373,-0.637468 l -3.675502,0.692153 C 45.715573,92.754985 45.514695,92.333895 45.24673,92.077326 44.851726,91.699121 44.379729,91.539387 44.199592,91.282742 43.897571,87.556249 43.204533,85.6337 42.464334,83.659564 Z"
       id="path4885"
       inkscape:connector-curvature="0"
       sodipodi:nodetypes="cccccscsscsccssccscccccccccscscccccsssssccscccccscssscssccscsscsccc" />
    <path
       style="color:#000000;font-style:normal;font-variant:normal;font-weight:normal;font-stretch:normal;font-size:medium;line-height:normal;font-family:sans-serif;text-indent:0;text-align:start;text-decoration:none;text-decoration-line:none;text-decoration-style:solid;text-decoration-color:#000000;letter-spacing:normal;word-spacing:normal;text-transform:none;direction:ltr;block-progression:tb;writing-mode:lr-tb;baseline-shift:baseline;text-anchor:start;white-space:normal;clip-rule:nonzero;display:inline;overflow:visible;visibility:visible;opacity:1;isolation:auto;mix-blend-mode:normal;color-interpolation:sRGB;color-interpolation-filters:linearRGB;solid-color:#000000;solid-opacity:1;fill:#2e0303;fill-opacity:1;fill-rule:evenodd;stroke:none;stroke-width:2.83464575;stroke-linecap:butt;stroke-linejoin:miter;stroke-miterlimit:4;stroke-dasharray:none;stroke-dashoffset:0;stroke-opacity:1;color-rendering:auto;image-rendering:auto;shape-rendering:auto;text-rendering:auto;enable-background:accumulate"
       d="m 8.7963644,6.7063116 c -0.1807266,-0.00771 -0.3618139,-0.004 -0.5429687,0.00977 -0.4830797,0.036703 -0.9681416,0.150803 -1.4511719,0.3515581 -2.2440209,1.7433394 -0.4661875,3.3635173 0.3144531,5.1953133 -1.8911998,-0.268786 -3.0887572,0.212859 -3.8164062,1.875 -1.2596532,0.396799 -2.0041546,1.113418 -2.2460937,2.267578 -0.34075518,1.625557 0.9361223,2.65263 1.970703,3.664062 -0.1495315,0.740723 -0.3279552,1.477805 -0.2792968,2.322266 0.053544,0.92925 0.4219052,1.903881 1.0253906,2.810547 -0.1238274,0.57295 -0.3038947,1.167475 -0.2050781,2.011719 0.092163,0.787394 0.5766585,1.587169 1.25,2.324218 -0.999065,1.147488 -1.4234639,1.596316 0.34375,2.613282 -0.7097812,0.713879 -1.6343256,1.25248 -1.7207031,2.089843 -0.1002628,0.971958 0.157926,2.011013 1.6132812,2.609375 -1.3764883,0.825434 -1.773944,1.776565 -1.8554688,3.169922 -0.081779,1.397699 1.3352797,3.343503 3.5722657,4.076172 -1.0333589,2.698462 0.4249997,6.828377 2.7988281,7.416016 -0.8252538,2.439028 1.0911562,4.090752 2.5097662,5.486328 -0.593773,1.059085 -0.203692,2.120447 0.451171,2.839844 0.801089,0.880032 2.506954,1.140899 3.915698,1.371229 -0.731922,2.336845 -0.276982,4.721839 0.855787,5.857286 0.691664,0.693299 2.161983,0.400144 3.01667,0.65943 0.05908,1.379613 0.763905,3.006601 1.916924,4.201898 1.417865,1.469854 3.173406,0.915322 4.974745,0.63345 -0.117264,2.163926 1.235321,2.529879 2.87877,2.624363 1.296825,2.500067 2.629834,5.552627 6.126953,7.310547 0.942407,1.746094 2.43584,1.622177 3.908203,1.724609 1.63258,0.113578 2.934543,0.50435 3.763672,-0.708984 1.09988,-1.128503 1.304883,-2.235449 1.648438,-2.875 0.847854,-0.05894 1.960847,0.105744 2.71289,-0.326172 1.387307,-1.016019 1.920228,-2.292339 2.900391,-3.482422 1.489256,1.48905 2.800373,3.484657 4.720703,3.703125 0,0 0.01172,0.0013 0.01758,0.002 0.0059,6.67e-4 -1.336264,-0.435293 0.01758,0.002 1.758429,0.567312 2.530805,0.866141 4.185547,0.832032 0.672752,-0.01387 2.572013,-0.01109 3.158203,-0.554688 0.586192,-0.543595 1.183855,-0.665785 1.482422,-1.689453 0.355086,-1.217449 0.240067,-2.606582 0,-3.724609 0.55078,-1.297787 0.983675,-2.951851 0.892578,-5.13086 0.738169,-0.14699 1.569245,-0.683298 2.208985,-0.652344 1.95352,0.09452 3.52364,-0.651839 4.798828,-1.355468 1.246661,-0.687889 2.996633,-1.210772 4.494141,-2.585938 3.366699,-3.091649 4.627403,-6.133669 8.25,-11.384766 4.145493,-6.009056 5.1144,-12.245111 6.857422,-17.367187 1.027709,-3.020071 1.544453,-6.188074 1.910156,-8.898437 0.10276,-0.76159 -0.241031,-1.140956 0.08398,-1.904297 -0.354441,-0.475396 -0.701975,-1.051267 -0.978516,-2.396485 l 0.345704,-1.52539 c 0.203434,-0.899376 -2.086128,0.211372 -0.699219,1.171875 0.197034,1.326968 -1.134305,1.603643 -1.816406,1.09375 -0.455611,-0.340583 0.01769,-0.952468 -0.533203,-2.259766 -0.102312,-0.242784 -0.672498,-1.081097 -0.873047,-1.251953 -0.170196,-0.144997 -0.383122,-1.144593 0.507812,-1.578125 0.81195,-0.3951 1.919776,-0.187338 2.183594,-0.679688 0.299589,-0.559108 -1.531571,-2.516255 -0.845703,-2.902343 0.869918,-0.489694 2.461646,-1.281972 3.246094,-1.267578 0.833342,0.01529 1.288816,-0.06233 2.191406,0.720703 l 1.4375,1.248047 c 1.355484,1.175929 1.290816,-0.02793 1.007812,-0.556641 -1.412899,-2.6396 -4.128783,-3.615402 -6.732422,-3.880859 -2.315847,-0.23612 -4.558544,-0.320633 -6.580078,0.357421 -2.637452,0.884642 -5.468011,2.117083 -7.58789,3.494141 -2.060223,1.338306 -3.363079,3.289762 -4.595704,5.027344 -1.232623,1.737582 -2.384495,3.252039 -3.851562,4.085937 -3.435786,1.952943 -8.196412,1.615404 -12.919922,2.71875 -4.084574,0.9541 -7.63507,2.893667 -11.037109,2.830078 -4.888327,-0.09137 -9.903486,-0.391725 -13.734375,-3.210937 -1.431387,-1.05338 -2.552691,-3.510309 -3.720703,-4.597656 -1.238826,-1.15327 -2.16451,-1.888351 -2.845703,-2.455078 -1.705906,-1.419244 -3.357582,-2.704763 -4.087891,-4.222657 -0.91743,-1.906808 -2.407258,-3.048805 -3.791016,-3.728515 -2.177495,-1.069692 -3.618118,-2.6947755 -5.40039,-4.0859384 -1.201806,-0.938076 -2.453664,-1.5085389 -3.7187506,-1.5625 z m 0.5195313,2.3554688 c 0.6164303,0.053964 1.3169823,0.4861762 1.9003903,0.9316411 0.619855,0.4732835 1.712529,1.3647565 2.1875,1.8847655 1.22167,1.337512 2.819706,1.921497 4.007813,2.599609 1.188107,0.678118 2.34893,1.701756 2.921875,2.892579 1.141807,2.373159 2.767772,3.524124 4.492188,4.720703 1.813714,1.258544 2.586582,2.600382 3.605468,4.292968 0.485321,0.806226 2.408092,2.275279 3.517578,2.869141 4.917304,2.632029 8.753793,3.431439 14.09375,3.53125 4.424245,0.0827 8.196485,-1.458754 11.734375,-2.285156 4.107199,-0.959384 9.227749,-0.485356 13.675782,-3.013672 2.15742,-1.226303 3.516592,-3.154148 4.763671,-4.912109 1.24708,-1.757961 2.274457,-3.562612 3.517579,-4.740235 1.73031,-1.639143 4.254348,-2.753791 6.441406,-3.632812 1.272891,-0.511599 5.459521,-1.245583 7.880859,-0.623047 -1.624573,0.07713 -3.744581,1.372903 -4.669922,2.738281 -0.694658,1.024995 -1.466252,2.329782 -1.511718,3.460938 -0.03328,0.828004 0.350477,1.64011 0.552734,2.267578 0.171228,0.531208 0.709527,0.816104 1.330078,1.210937 0.150733,0.617989 -0.08711,1.629796 0.205078,2.064453 0.538682,0.801342 2.068642,1.254566 2.869141,0.15625 0.480812,2.614057 -0.765231,6.84991 -2.142578,10.773438 -1.928749,5.494259 -3.923026,11.032388 -7.646485,16.429687 -3.732077,5.409794 -4.900913,8.214756 -7.833984,10.908204 -0.88363,0.81144 -2.363423,1.319418 -3.947266,2.193359 -1.223798,0.675273 -2.353335,1.082938 -3.001953,1.033203 -2.021553,-0.155009 -3.588324,0.947125 -5.222656,2.019531 0.649681,2.265962 -0.570278,4.577006 -1.259766,6.31836 0.3459,0.963154 0.396383,2.020829 0.289063,2.953125 -0.06371,0.553463 -0.0816,1.421356 -0.351563,1.724609 -0.123938,0.004 -2.510135,-0.04004 -3.371093,-0.259766 -0.962875,-0.446717 -1.192925,-1.408901 -2.726563,-1.832031 -1.533637,-0.423131 -2.598449,-1.466515 -2.119141,-2.566406 0.47931,-1.099892 1.639939,-2.567176 2.751954,-3.199219 0.567242,-0.322407 2.161248,1.336099 3.042968,1.232422 1.114558,-0.131055 2.830958,-2.824791 2.583985,-3.21875 -0.539604,-0.86075 -2.015398,1.798706 -2.748047,1.865234 -1.087972,0.09879 -2.304475,-2.040262 -3.1875,-1.49414 -2.419701,1.496506 -2.669266,2.74112 -3.595703,2.666015 -0.10885,-0.0088 -1.708644,1.18328 -2.181641,1.902344 -0.577215,0.877499 -1.597763,0.623206 -2.230469,1.300781 -0.15596,0.709849 -0.688086,1.219359 -1.097656,1.626953 -0.998381,0.398984 -1.237805,1.494089 -2.265625,1.451172 -1.257168,1.959822 -2.377638,3.866715 -3.933594,3.761719 -1.511903,-0.102023 -2.76218,-0.759386 -3.318359,-2.021484 -3.136737,-1.588372 -4.126869,-4.65597 -5.53125,-7.283203 -3.009539,-0.495143 -2.775894,-1.914386 -3.439453,-3.949219 -0.958736,0.504242 -3.645996,1.152542 -4.622864,0.855923 -1.929468,-0.585867 -1.990604,-2.93721 -2.12323,-4.686001 -0.747505,-0.345576 -2.570855,-0.218055 -3.087436,-0.779616 -1.908514,-2.074691 -1.167705,-3.187225 -0.154751,-5.314134 -1.579408,0.04399 -3.67539,-0.664928 -4.111918,-1.077694 -0.609415,-0.576241 -0.434426,-1.267127 0.172465,-1.592228 0.921158,-0.493448 1.786468,-0.917621 2.441406,-1.607422 0.808041,-0.851055 3.668843,-3.804569 3.232422,-4.042969 -0.436421,-0.238399 -3.62679,2.488306 -4.220704,3.126953 -0.366832,0.394462 -0.897777,0.593222 -1.472656,0.751953 -1.562036,-1.485188 -2.696575,-3.016154 -2.65625,-4.123046 0.04402,-1.208392 0.579249,-1.798322 0.898438,-1.97461 1.120515,-0.618859 3.549301,-1.314879 3.375,-1.71875 -0.174301,-0.403872 -3.025041,0.275574 -3.851563,0.72461 -0.458018,0.248833 -0.956926,0.747455 -1.414062,1.251953 -1.5158815,-1.25567 -2.7089569,-2.736265 -1.710938,-4.96875 0.6037387,-0.03353 1.195586,-0.133225 1.650391,-0.22461 0.992679,-0.199461 3.354102,-2.157673 3.162109,-2.55664 -0.191992,-0.398968 -2.811616,1.197527 -3.597656,1.355469 C 9.6020434,43.343442 7.816345,42.809484 7.4408957,42.5735 6.2346497,41.815329 5.7583952,41.219715 5.5483176,40.044203 5.4682164,39.595989 6.0300118,38.209968 7.0619894,37.97975 c 0.8303372,0.250442 1.6520019,0.305506 2.4179688,0.201172 1.1513458,-0.15683 3.7688198,-1.379004 3.6582038,-1.748047 -0.110619,-0.369044 -3.07467,0.608943 -3.9238288,0.724609 C 8.4392377,37.263062 7.2810295,36.875868 6.5326926,36.28639 5.9829175,35.853323 5.6240706,35.160259 5.696755,34.673109 c 0.1199365,-0.803844 1.7006895,-1.248457 2.3652344,-1.314453 1.0941843,-0.108663 2.1070756,0.600196 2.9160156,0.583984 1.323279,-0.02652 2.676311,-1.53791 2.611328,-1.804687 -0.06498,-0.266777 -1.431294,0.421671 -2.863281,0.455078 -0.804233,0.01876 -1.9243667,-0.361544 -2.8984376,-0.916016 -0.9231979,-0.525513 -1.6111789,-1.481569 -1.4160156,-1.652343 1.3791271,0.827183 3.1968007,0.632546 4.1855472,0.451171 0.829676,-0.152195 2.933741,-1.370244 2.751953,-1.632812 -0.181788,-0.262567 -2.455754,0.539603 -3.177735,0.498047 -1.7200473,-0.099 -3.1745485,-0.601868 -4.521484,-1.583985 -0.8410761,-0.61327 -0.9071697,-1.916829 -0.8945312,-2.035156 0.78645,1.053828 2.6204281,1.145408 3.1191406,1.208985 1.0592217,0.135027 4.2926886,-0.27956 4.1933596,-0.732422 -0.09933,-0.452862 -3.2874829,-0.09718 -4.183594,-0.410157 -1.6231454,-0.566904 -3.2911547,-2.64003 -3.3183593,-4.322265 0.6550945,0.650389 1.7196799,1.288353 2.1054687,1.541015 0.8381719,0.548938 3.3687746,0.975281 3.4570316,0.658203 C 10.216653,23.34822 7.8892294,22.4069 7.2475363,21.975843 6.3905082,21.400135 5.415306,20.767398 5.0346457,20.22389 l -1.921875,-2.74414 c -0.3416076,-0.487748 -0.7560148,-1.851515 0.7539062,-1.857422 1.4306727,0.573456 2.8818355,1.02748 3.9316407,1.951172 1.8372516,1.616541 3.0994284,3.374199 3.4687504,5.515625 1.181966,0.474874 2.494591,0.735585 3.666015,0.740234 0.757674,0.003 2.928189,-0.733487 2.910157,-1.169922 -0.01803,-0.436434 -2.282531,0.01696 -2.800782,0.05078 -0.453112,0.02957 -1.827871,-0.266842 -2.822265,-0.578125 C 11.718778,20.101519 10.70025,18.14483 8.6264426,16.65553 7.3315757,15.725625 6.1699603,15.121165 5.0541769,14.714124 c 0.8862036,-0.445922 2.0452548,-0.72719 3.1113281,-0.634766 1.4136209,0.122555 2.355698,1.537042 3.982422,1.666016 0.688088,1.414811 1.601993,1.943436 2.400391,2.40039 1.08286,0.619764 4.504557,0.893814 4.642578,0.488281 0.138021,-0.405532 -3.31661,-0.645698 -4.138672,-1.361328 -0.833953,-0.725982 -1.412511,-1.903365 -2.277344,-2.8125 C 11.426999,14.434722 10.057551,14.050471 9.3178488,13.151625 8.3781387,12.00974 7.4512108,10.505511 8.3393332,9.4504523 8.6063987,9.1331866 8.9460375,9.0294018 9.3158957,9.0617804 Z"
       id="path4169"
       inkscape:connector-curvature="0"
       sodipodi:nodetypes="sscccscscsccscscccscscscccscccccccsssccssssssccccscsssssccsssssssssssscsssssssssssssssscssscscsssssccsccssssssscscccsccccscsssssscssssccssssscssssssscsscsssscssscssscccscssscscscssscssss" />
    <path
       style="color:#000000;font-style:normal;font-variant:normal;font-weight:normal;font-stretch:normal;font-size:medium;line-height:normal;font-family:sans-serif;text-indent:0;text-align:start;text-decoration:none;text-decoration-line:none;text-decoration-style:solid;text-decoration-color:#000000;letter-spacing:normal;word-spacing:normal;text-transform:none;direction:ltr;block-progression:tb;writing-mode:lr-tb;baseline-shift:baseline;text-anchor:start;white-space:normal;clip-rule:nonzero;display:inline;overflow:visible;visibility:visible;opacity:1;isolation:auto;mix-blend-mode:normal;color-interpolation:sRGB;color-interpolation-filters:linearRGB;solid-color:#000000;solid-opacity:1;fill:#280000;fill-opacity:1;fill-rule:evenodd;stroke:none;stroke-width:2.83464575;stroke-linecap:butt;stroke-linejoin:miter;stroke-miterlimit:4;stroke-dasharray:none;stroke-dashoffset:0;stroke-opacity:1;color-rendering:auto;image-rendering:auto;shape-rendering:auto;text-rendering:auto;enable-background:accumulate"
       d="m 43.058083,33.397718 c -1.009002,-0.04289 -3.329723,0.321962 -6.480468,1.533204 -4.200995,1.614986 -8.970985,2.962638 -11.396485,6.246093 -0.672838,0.910837 -1.304829,1.974029 -1.121094,3.365235 0.09187,0.695602 0.515059,1.625076 1.279297,1.375 1.090603,-0.35687 1.507878,-0.524774 1.679688,-0.462891 -0.0083,0.257731 -1.285238,1.207509 -1.697266,2.277344 -0.218664,0.567762 -0.537908,1.311258 0.189453,1.583984 0.228744,0.08577 2.184019,-0.430776 2.41211,-0.410156 0.218488,0.577664 0.537701,1.107598 1.064453,1.453125 0.915213,0.600341 1.897681,0.647508 3.072265,0.642578 1.974365,-0.0083 4.209056,0.264952 6.552735,-0.185547 1.444581,-0.277676 2.932877,0.581295 4.779297,1.900391 1.846419,1.319096 3.893824,3.049745 6.609375,3.294922 1.019731,0.09207 5.597419,-2.941826 5.363281,-3.585938 -0.234139,-0.644112 -5.323791,1.954332 -5.445312,1.94336 -1.557325,-0.140606 -3.575758,-1.795228 -5.5,-3.169922 -1.924243,-1.374693 -3.57325,-3.135683 -6.341797,-2.603516 -1.772286,0.340667 -3.487241,0.829365 -5.691407,0.808594 -1.743775,-0.01643 -1.912729,-0.803404 -1.40625,-1.195313 0.803315,-0.621598 1.673217,-0.760326 2.310547,-1.189453 0.990229,-0.66674 1.801206,-1.439252 3.021485,-2.447266 2.494669,-2.060724 0.938089,-1.662211 -0.830078,-0.763671 -1.33235,0.677067 -2.091382,1.432998 -3.023438,2.015625 -0.491701,0.307361 -1.05984,0.57746 -1.677734,0.791015 -0.171098,0.05913 -0.458667,0.150622 -1.433388,0.627774 -0.97472,0.477151 -2.97227,1.621651 -2.953331,0.83707 0.01639,-0.679186 1.459574,-1.94294 2.59375,-2.849609 1.134177,-0.90667 1.541452,-1.343272 2.443359,-1.865235 0.558553,-0.323253 1.359284,-0.760884 2.490235,-0.957031 3.293121,-0.571143 1.749351,-0.979409 0.585937,-0.955078 -3.397409,0.07105 -3.276237,1.340096 -5.550781,2.316406 -0.887098,0.380772 -2.14763,0.403144 -2.791016,0.386719 -0.237572,-1.151329 1.054843,-2.278772 1.410157,-2.759766 1.650977,-2.234966 5.524764,-3.907206 9.541015,-5.451172 4.01625,-1.543966 6.603991,-2.028006 6.496094,-2.382812 -0.02698,-0.0887 -0.218353,-0.149766 -0.554688,-0.164063 z"
       id="path4171"
       inkscape:connector-curvature="0"
       sodipodi:nodetypes="ssssscsscssssssssssssssssssssssscsscs" />
    <path
       style="color:#000000;font-style:normal;font-variant:normal;font-weight:normal;font-stretch:normal;font-size:medium;line-height:normal;font-family:sans-serif;text-indent:0;text-align:start;text-decoration:none;text-decoration-line:none;text-decoration-style:solid;text-decoration-color:#000000;letter-spacing:normal;word-spacing:normal;text-transform:none;direction:ltr;block-progression:tb;writing-mode:lr-tb;baseline-shift:baseline;text-anchor:start;white-space:normal;clip-rule:nonzero;display:inline;overflow:visible;visibility:visible;opacity:1;isolation:auto;mix-blend-mode:normal;color-interpolation:sRGB;color-interpolation-filters:linearRGB;solid-color:#000000;solid-opacity:1;fill:#401818;fill-opacity:1;fill-rule:evenodd;stroke:none;stroke-width:1.77165353;stroke-linecap:butt;stroke-linejoin:miter;stroke-miterlimit:4;stroke-dasharray:none;stroke-dashoffset:0;stroke-opacity:1;color-rendering:auto;image-rendering:auto;shape-rendering:auto;text-rendering:auto;enable-background:accumulate"
       d="m 57.416206,30.780504 c -0.275664,0.234131 0.656572,1.681131 1.226817,2.134892 1.432312,1.139737 2.251491,1.478973 3.967725,1.248859 -0.879522,0.515321 -2.566404,2.306952 -1.814378,3.276217 1.340328,1.727514 4.203426,0.133615 5.932428,0.311792 -0.844098,1.103152 -2.34283,3.616869 -1.429481,3.920828 -0.06387,1.242121 2.488702,0.845111 3.027098,0.654614 -0.445292,1.123658 -0.923467,2.028561 -0.260088,2.86963 0.77772,0.98604 2.050327,0.340288 3.623199,-0.07687 -0.743869,1.382801 -0.414127,2.590452 0.233637,2.97959 0.654611,0.393251 3.543503,-1.219794 4.247057,-1.489394 0.426853,1.308764 0.766972,3.092306 1.748722,3.439153 1.154624,0.407921 2.689993,-1.27423 3.438793,-2.829678 0.72862,1.896711 -0.230361,3.704098 1.140194,3.988694 1.440255,0.29907 1.449726,-1.090428 2.638445,-2.407368 0.981903,-1.087815 0.83365,-1.939944 1.512356,-3.638835 -1.552025,0.959788 -3.057365,3.643508 -3.558217,3.950345 -0.528884,0.32401 -1.260049,-3.675704 -1.495267,-4.246506 -0.875427,0.686006 -2.324009,3.163636 -3.244108,3.008408 -0.938427,-0.15832 -0.957269,-2.467247 -1.090366,-3.797921 -1.013544,0.345946 -3.068846,2.459293 -4.115562,2.111889 -0.857707,-0.284671 0.261758,-2.902583 1.514585,-3.978058 -2.133728,0.747112 -3.048504,1.773988 -4.695948,1.172401 -0.776504,-0.283552 0.156446,-2.494058 0.941336,-3.872671 -0.616054,0.498644 -2.596925,1.222224 -3.881617,1.139443 -1.284691,-0.08278 0.423228,-2.291158 0.903449,-2.807913 0.682207,-0.675207 1.386299,-1.328012 2.078342,-1.993148 -2.334588,0.110755 -5.421105,1.781883 -7.013672,0.05273 -1.013537,-1.100462 2.103461,-2.253428 1.729791,-2.733639 -0.373669,-0.480212 -2.257039,-0.260046 -4.473443,-1.318154 -0.507746,-0.242397 -2.556162,-1.303459 -2.831827,-1.069328 z"
       id="path4242"
       inkscape:connector-curvature="0"
       sodipodi:nodetypes="zscscccscscscsscscscscscsccszsz" />
    <path
       style="color:#000000;font-style:normal;font-variant:normal;font-weight:normal;font-stretch:normal;font-size:medium;line-height:normal;font-family:sans-serif;text-indent:0;text-align:start;text-decoration:none;text-decoration-line:none;text-decoration-style:solid;text-decoration-color:#000000;letter-spacing:normal;word-spacing:normal;text-transform:none;direction:ltr;block-progression:tb;writing-mode:lr-tb;baseline-shift:baseline;text-anchor:start;white-space:normal;clip-rule:nonzero;display:inline;overflow:visible;visibility:visible;opacity:1;isolation:auto;mix-blend-mode:normal;color-interpolation:sRGB;color-interpolation-filters:linearRGB;solid-color:#000000;solid-opacity:1;fill:#800000;fill-opacity:1;fill-rule:evenodd;stroke:none;stroke-width:1.77165353;stroke-linecap:butt;stroke-linejoin:miter;stroke-miterlimit:4;stroke-dasharray:none;stroke-dashoffset:0;stroke-opacity:1;color-rendering:auto;image-rendering:auto;shape-rendering:auto;text-rendering:auto;enable-background:accumulate"
       d="m 90.699061,10.018812 c -0.536574,-0.6876783 -0.191447,-1.6803795 0.112136,-2.3182846 0.207498,-0.4360055 1.108031,-0.8042557 1.274029,-0.6850798 0.165998,0.1191759 1.00623,0.7978037 1.112725,1.0727375 0.212992,0.5498674 0.266804,1.9411629 0.266804,1.9411629 0.593969,0.05217 1.852204,-3.8538862 2.066717,-5.3421331 0.642458,0.8721434 0.376879,2.6250077 0.176516,3.4411416 -0.06659,0.2712324 -0.314152,2.0751405 0.172258,2.6898485 0.681893,-0.243572 1.387586,-0.77998 1.85617,-1.6231098 0.156454,-0.2815106 1.155341,-3.0115832 1.307768,-3.2867132 0.515918,0.3903233 -0.105411,2.805084 -0.225548,3.2019772 -0.257914,0.8520613 -0.596521,2.3826818 0.03118,3.5542738 0.712151,-0.207821 1.452514,-0.382302 2.096624,-1.412145 0.27169,-0.434378 1.08372,-2.1744771 0.91743,-3.3302836 0.83069,0.9374795 0.67332,1.7396601 0.25187,3.0839826 -0.37496,1.196054 -0.91009,1.966733 -1.36514,2.9501 0.67949,1.140256 1.24836,1.681646 0.28599,3.107441 -0.612,0.04717 -0.76735,0.418512 -1.0332,0.853516 -0.540359,-0.146714 -1.117986,0.197718 -1.949893,0.502823 -0.833193,0.30557 -1.944,0.511577 -1.81404,1.16549 0.177577,0.893506 0.863311,1.439692 1.625678,1.791778 0.05633,0.424136 -0.124407,0.558518 -0.717149,0.85605 -1.123475,0.563938 -3.275149,1.197184 -3.16655,1.235845 0.07996,0.02847 2.188304,-0.376688 3.500052,-0.87047 0.666365,-0.250839 1.019282,-0.576563 1.238254,-0.902937 0.226431,0.06839 0.445514,0.12458 0.645842,0.172619 0.490253,0.773914 0.336052,2.225359 -0.03872,2.64592 -0.382837,0.429616 -1.157999,1.788951 -1.602557,1.987323 -1.15072,0.513477 -2.580566,0.484266 -3.233886,-0.210543 -0.58726,-0.624554 -1.183387,-1.9686 -1.183387,-1.9686 l -0.593301,0.442496 c 0,0 -0.05844,0.894303 0.621376,1.660288 0.679819,0.765985 1.954347,2.268616 3.249249,2.270056 0.877338,9.84e-4 1.750629,-0.748047 2.333308,-1.279221 0.58268,-0.531173 1.188944,-1.367372 1.524374,-2.041955 0.49492,-0.995311 0.19771,-2.280249 0.15502,-3.267502 -0.0636,-0.315263 -0.26927,-0.413204 -0.847645,-0.655267 -0.727266,-0.05131 -1.733993,-0.908602 -1.984492,-1.202757 -0.383278,-0.450074 0.236336,-0.958207 0.393179,-0.982891 0.907309,-0.142792 3.128128,1.163779 3.936188,0.475886 0.33952,-0.289029 -1.1983,-1.14265 -1.03304,-1.540133 0.33182,-0.587077 0.937,-0.124452 1.36455,0.06089 0.23789,-0.388001 0.47771,-0.775037 0.56925,-1.236215 0.39718,-2.000935 -0.40489,-2.238094 -0.76436,-2.944244 0.60594,-0.603821 1.38727,-1.936145 1.57508,-2.82649 0.22223,-1.0535 -0.032,-2.9826112 -1.51823,-4.2275026 l -1.29338,-1.0833489 c -0.004,0.080768 0.0209,1.6492194 -0.40524,3.101918 -0.28169,0.9602535 -0.51476,1.4170725 -1.356182,2.4209545 0.139524,-0.929078 1.065932,-3.5028992 0.988322,-4.8837138 -0.0206,-0.3658962 -0.525282,-1.6816931 -1.306832,-2.5465176 -0.40735,0.2732581 -0.44851,1.4857947 -0.815936,2.2177918 -0.659335,1.3135447 -1.37538,2.4469759 -1.6561,3.0432122 C 96.539352,8.8329833 97.001245,6.9097295 96.955788,6.375426 96.891898,5.6244397 96.549833,4.256125 95.872273,3.6174261 95.475851,3.2437409 94.845307,2.3619187 94.304459,2.4215128 c 0.09563,0.7863281 0.06999,1.5120193 0.0169,2.2239892 -0.04954,0.6644581 -0.308311,1.6234183 -0.650393,2.3521634 C 93.38425,6.1765291 92.739815,5.6419438 92.121461,5.528784 91.111934,5.344039 89.98007,6.0485901 89.516068,6.7755539 c -0.464002,0.7269638 -0.602098,1.6004505 -0.570989,2.430495 0.02482,0.6622186 0.53694,1.4725321 0.886513,1.9248981 0.349572,0.452367 1.109804,0.830245 1.521408,1.186693 0.823208,0.712898 1.57065,0.8082 1.57065,0.8082 l 1.047345,-0.559289 c 0,0 -0.756061,-0.523454 -1.357818,-0.988545 -1.150283,-0.889041 -1.677437,-1.255857 -1.914116,-1.559194 z"
       id="path4247"
       inkscape:connector-curvature="0"
       sodipodi:nodetypes="ssssccscscscscscccsscscsccsssccssssccsssccscsscscscscsscscsssssccss" />
    <path
       style="fill:#ffd723;fill-rule:evenodd;stroke:#ff6600;stroke-width:0.29055119;stroke-linecap:butt;stroke-linejoin:miter;stroke-miterlimit:4;stroke-dasharray:none;stroke-opacity:1;fill-opacity:1"
       d="m 96.619635,19.73386 c 0.865481,0.831382 1.806068,1.531328 3.137786,1.546796 l 5.745239,3.933282 c 0.52605,-0.78853 0.79848,-1.746139 0.61872,-3.005204 -0.87123,-1.542594 -2.10806,-2.993788 -3.44715,-4.419417 -0.63877,-0.35107 -1.32069,-0.443258 -2.07712,-0.08839 l -0.17678,1.37002 c -1.310086,-0.426888 -2.606786,-0.652925 -3.800695,0.662913 z"
       id="path4897"
       inkscape:connector-curvature="0"
       sodipodi:nodetypes="cccccccc" />
    <path
       style="color:#000000;font-style:normal;font-variant:normal;font-weight:normal;font-stretch:normal;font-size:medium;line-height:normal;font-family:sans-serif;text-indent:0;text-align:start;text-decoration:none;text-decoration-line:none;text-decoration-style:solid;text-decoration-color:#000000;letter-spacing:normal;word-spacing:normal;text-transform:none;direction:ltr;block-progression:tb;writing-mode:lr-tb;baseline-shift:baseline;text-anchor:start;white-space:normal;clip-rule:nonzero;display:inline;overflow:visible;visibility:visible;opacity:1;isolation:auto;mix-blend-mode:normal;color-interpolation:sRGB;color-interpolation-filters:linearRGB;solid-color:#000000;solid-opacity:1;fill:#b98b00;fill-opacity:1;fill-rule:evenodd;stroke:none;stroke-width:1.77165353;stroke-linecap:butt;stroke-linejoin:miter;stroke-miterlimit:4;stroke-dasharray:none;stroke-dashoffset:0;stroke-opacity:1;color-rendering:auto;image-rendering:auto;shape-rendering:auto;text-rendering:auto;enable-background:accumulate"
       d="m 101.48114,16.260864 c 0.0843,0.417457 -0.39599,0.516415 -0.39934,0.798668 -0.22413,0.04285 -0.69356,-0.106057 -1.04432,0.911633 -0.252316,-0.160429 -0.629112,-0.06285 -1.168793,0.164175 -1.28465,0.540415 -1.148416,0.381018 -2.064284,0.719659 -0.435803,0.161137 -0.89561,0.346448 -0.430142,1.326955 0.714608,1.505315 2.759005,1.14426 3.752109,1.971601 l 2.78518,2.320289 c 0.89425,0.744977 1.95307,1.086289 3.01562,1.113282 l 0.25591,-0.929642 c 0.269,-0.977227 0.47321,-1.677762 0.3457,-2.466797 -0.12751,-0.789035 -0.58388,-1.421494 -1.27344,-2.199219 l -2.4746,-2.791015 c -0.4162,-0.491461 -0.82056,-1.020644 -1.2996,-0.939589 z m 2.92592,4.3291 c 0.62736,0.707794 0.87091,1.13223 0.98895,1.386264 0.27839,0.599112 0.47917,1.226 0.007,2.065746 0,0 -1.06344,-1.220088 -1.63699,-1.702838 -0.78118,-0.6575 -1.96885,-1.254509 -2.59573,-1.496671 -0.43237,-0.167024 -1.342776,-0.629917 -1.934205,-0.56871 -0.625217,0.0647 -1.162274,1.58e-4 -1.243799,-0.520576 0.428746,-0.183863 0.891682,-0.286951 1.552735,-0.171875 l 1.150789,0.293937 c 0.4979,0.240224 0.93909,0.08354 1.38577,-0.03478 0.57244,-0.158668 -0.55602,-0.970753 -0.87641,-1.184933 -0.33976,-0.677717 0.6454,-0.874599 1.20304,-0.335483 0.7638,0.45254 1.35219,1.539831 1.99931,2.269919 z"
       id="path4251"
       inkscape:connector-curvature="0"
       sodipodi:nodetypes="cccssssscssscccscsssccccccsc" />
    <path
       style="opacity:1;fill:#422020;fill-opacity:1;stroke:#9e0000;stroke-width:0.35433069;stroke-linecap:round;stroke-linejoin:round;stroke-miterlimit:4;stroke-dasharray:none;stroke-dashoffset:0;stroke-opacity:1"
       d="m 96.444027,18.363822 c -0.616079,0.581378 -1.584484,0.561547 -2.176245,-0.04456 -0.591745,-0.606129 -0.588341,-1.574727 0.0077,-2.176681 0.595976,-0.60197 1.564496,-0.615044 2.213311,0.0084 0.607638,0.663592 0.571361,1.631517 -0.04472,2.212895 z"
       id="path4220"
       inkscape:connector-curvature="0"
       sodipodi:nodetypes="scccs" />
    <path
       style="opacity:1;fill:#000000;fill-opacity:1;stroke:#eeeeee;stroke-width:0.35433072;stroke-linecap:round;stroke-linejoin:round;stroke-miterlimit:4;stroke-dasharray:none;stroke-dashoffset:0;stroke-opacity:1"
       d="m 96.11744,17.935397 c -0.361367,0.341014 -0.929391,0.329382 -1.276493,-0.02614 -0.347092,-0.355532 -0.345095,-0.923674 0.0045,-1.276757 0.349575,-0.353092 0.917668,-0.36076 1.298234,0.0049 0.356414,0.389238 0.335136,0.956985 -0.02623,1.297999 z"
       id="path4220-6"
       inkscape:connector-curvature="0"
       sodipodi:nodetypes="scccs" />
  </g>
</svg>
